<svg xmlns="http://www.w3.org/2000/svg" xmlns:xlink="http://www.w3.org/1999/xlink" width="600" zoomAndPan="magnify" viewBox="0 0 450 74.999997" height="100" preserveAspectRatio="xMidYMid meet" version="1.0"><defs><g/></defs><g fill="#3f542a" fill-opacity="1"><g transform="translate(109.336135, 73.382796)"><g><path d="M 0.96875 0 C 5.703125 -0.96875 9.28125 -1.449219 12.957031 -1.449219 C 16.628906 -1.449219 20.304688 -0.96875 24.945312 0 C 18.371094 -24.847656 15.855469 -40.996094 15.855469 -50.277344 C 15.855469 -56.855469 17.113281 -59.949219 19.046875 -59.949219 C 23.398438 -59.949219 32.972656 -44.476562 32.972656 -26.105469 C 32.972656 -17.597656 30.941406 -8.507812 25.527344 0 C 29.878906 -0.96875 33.261719 -1.449219 36.644531 -1.449219 C 40.03125 -1.449219 43.414062 -0.96875 47.667969 0 C 39.933594 -15.375 34.808594 -29.394531 34.808594 -43.800781 C 34.808594 -51.535156 36.355469 -59.367188 39.546875 -67.683594 C 33.648438 -66.714844 28.910156 -66.234375 24.269531 -66.234375 C 19.628906 -66.234375 14.988281 -66.714844 9.089844 -67.683594 C 12.28125 -59.367188 13.730469 -51.535156 13.730469 -43.800781 C 13.730469 -29.394531 8.703125 -15.375 0.96875 0 Z M 0.96875 0 "/></g></g></g><g fill="#3f542a" fill-opacity="1"><g transform="translate(157.966014, 73.382796)"><g><path d="M 32.679688 -7.636719 C 19.628906 -7.636719 11.3125 -37.226562 11.3125 -52.597656 C 11.3125 -58.015625 12.375 -61.496094 14.40625 -61.496094 C 20.402344 -61.496094 27.167969 -50.664062 27.167969 -47.570312 C 27.167969 -43.414062 23.207031 -41.191406 19.917969 -38.964844 C 17.597656 -37.417969 15.664062 -35.96875 15.664062 -33.9375 C 15.664062 -32.199219 17.015625 -31.617188 18.566406 -31.617188 C 20.691406 -31.617188 24.367188 -32.972656 26.492188 -32.972656 C 32.003906 -32.972656 36.160156 -22.046875 36.160156 -15.277344 C 36.160156 -11.121094 34.519531 -7.636719 32.679688 -7.636719 Z M 19.339844 0.96875 C 31.039062 -1.449219 42.640625 -7.734375 42.640625 -18.855469 C 42.640625 -32.679688 35.96875 -35.773438 30.746094 -35.773438 C 26.394531 -35.773438 19.53125 -33.648438 17.984375 -33.648438 C 17.597656 -33.648438 17.402344 -33.746094 17.402344 -34.132812 C 17.402344 -35 18.660156 -36.066406 20.789062 -37.226562 C 26.976562 -40.609375 38.578125 -46.121094 38.578125 -52.695312 C 38.578125 -62.847656 27.945312 -68.648438 19.726562 -68.648438 C 14.988281 -66.8125 11.699219 -66.039062 8.507812 -66.039062 C 5.703125 -66.039062 3.675781 -66.621094 1.0625 -67.78125 C 6.671875 -56.757812 9.476562 -45.636719 9.476562 -33.9375 C 9.476562 -22.433594 6.671875 -11.121094 1.0625 0 C 4.0625 -0.675781 6.476562 -0.96875 8.894531 -0.96875 C 12.085938 -0.96875 15.179688 -0.386719 19.339844 0.96875 Z M 19.339844 0.96875 "/></g></g></g><g fill="#3f542a" fill-opacity="1"><g transform="translate(201.56855, 73.382796)"><g><path d="M 0.96875 -34.035156 C 0.96875 -13.054688 8.992188 0.96875 20.113281 0.96875 C 31.132812 0.96875 39.257812 -13.441406 39.257812 -34.421875 C 39.257812 -55.308594 31.132812 -68.648438 20.113281 -68.648438 C 8.796875 -68.648438 0.96875 -54.917969 0.96875 -34.035156 Z M 29.394531 -7.636719 C 16.339844 -7.636719 8.023438 -37.324219 8.023438 -52.597656 C 8.023438 -57.917969 8.992188 -61.496094 11.121094 -61.496094 C 20.113281 -61.496094 32.875 -34.421875 32.875 -15.277344 C 32.875 -10.636719 31.8125 -7.636719 29.394531 -7.636719 Z M 29.394531 -7.636719 "/></g></g></g><g fill="#3f542a" fill-opacity="1"><g transform="translate(241.883976, 73.382796)"><g><path d="M 23.109375 0.96875 C 29.199219 0.96875 40.707031 -1.355469 40.707031 -33.550781 C 40.707031 -45.539062 39.835938 -57.144531 45.058594 -67.683594 C 40.609375 -66.714844 37.128906 -66.234375 33.648438 -66.234375 C 30.070312 -66.234375 26.589844 -66.714844 22.140625 -67.683594 C 29.585938 -54.4375 36.160156 -34.90625 36.160156 -19.53125 C 36.160156 -17.402344 36.644531 -7.636719 32.488281 -7.636719 C 21.464844 -7.636719 8.796875 -29.972656 8.796875 -40.898438 C 8.796875 -51.921875 14.40625 -59.851562 20.304688 -67.683594 C 16.535156 -66.714844 13.632812 -66.234375 10.734375 -66.234375 C 7.734375 -66.234375 4.835938 -66.714844 1.0625 -67.683594 C 6.382812 -57.144531 5.414062 -45.539062 5.414062 -33.550781 C 5.414062 -1.355469 17.015625 0.96875 23.109375 0.96875 Z M 23.109375 0.96875 "/></g></g></g><g fill="#3f542a" fill-opacity="1"><g transform="translate(288.000183, 73.382796)"><g><path d="M 38.964844 -41.191406 C 38.964844 -48.925781 41.671875 -58.691406 46.992188 -67.683594 C 40.996094 -66.714844 36.355469 -66.234375 31.714844 -66.234375 C 27.074219 -66.234375 17.308594 -65.75 0.96875 -67.683594 C 5.125 -60.816406 8.992188 -48.925781 8.992188 -41.191406 L 9.863281 -41.191406 C 10.25 -47.089844 11.988281 -59.851562 16.050781 -59.851562 C 21.753906 -59.851562 22.820312 -47.570312 22.820312 -43.800781 C 22.820312 -29.394531 20.5 -15.375 12.761719 0 C 22.140625 -1.933594 28.039062 -1.933594 37.324219 0 C 28.8125 -20.304688 21.078125 -59.949219 26.6875 -59.949219 C 31.039062 -59.949219 38 -48.925781 38.097656 -41.191406 Z M 38.964844 -41.191406 "/></g></g></g></svg>