<svg xmlns="http://www.w3.org/2000/svg" xmlns:xlink="http://www.w3.org/1999/xlink" width="600" zoomAndPan="magnify" viewBox="0 0 450 74.999997" height="100" preserveAspectRatio="xMidYMid meet" version="1.0"><defs><g/></defs><g fill="#3f542a" fill-opacity="1"><g transform="translate(139.939641, 73.382796)"><g><path d="M 26.203125 -43.703125 L 36.839844 -48.25 C 36.066406 -55.308594 31.714844 -68.648438 20.402344 -68.648438 C 9.089844 -68.648438 0.96875 -54.917969 0.96875 -34.035156 C 0.96875 -12.957031 9.089844 0.96875 20.402344 0.96875 C 34.710938 0.96875 37.613281 -21.660156 37.613281 -36.066406 L 27.167969 -33.261719 C 28.425781 -29.78125 32.777344 -18.757812 32.777344 -12.667969 C 32.777344 -9.765625 31.90625 -7.636719 29.394531 -7.636719 C 16.339844 -7.636719 8.023438 -37.324219 8.023438 -52.597656 C 8.023438 -57.917969 8.992188 -61.496094 11.121094 -61.496094 C 17.789062 -61.496094 23.6875 -49.988281 26.203125 -43.703125 Z M 26.203125 -43.703125 "/></g></g></g><g fill="#3f542a" fill-opacity="1"><g transform="translate(178.514833, 73.382796)"><g><path d="M 0.96875 -34.035156 C 0.96875 -13.054688 8.992188 0.96875 20.113281 0.96875 C 31.132812 0.96875 39.257812 -13.441406 39.257812 -34.421875 C 39.257812 -55.308594 31.132812 -68.648438 20.113281 -68.648438 C 8.796875 -68.648438 0.96875 -54.917969 0.96875 -34.035156 Z M 29.394531 -7.636719 C 16.339844 -7.636719 8.023438 -37.324219 8.023438 -52.597656 C 8.023438 -57.917969 8.992188 -61.496094 11.121094 -61.496094 C 20.113281 -61.496094 32.875 -34.421875 32.875 -15.277344 C 32.875 -10.636719 31.8125 -7.636719 29.394531 -7.636719 Z M 29.394531 -7.636719 "/></g></g></g><g fill="#3f542a" fill-opacity="1"><g transform="translate(218.83026, 73.382796)"><g><path d="M 32.679688 -7.636719 C 19.628906 -7.636719 11.3125 -37.324219 11.3125 -52.597656 C 11.3125 -57.917969 12.28125 -61.496094 14.40625 -61.496094 C 25.429688 -61.496094 36.160156 -30.167969 36.160156 -15.277344 C 36.160156 -11.121094 34.519531 -7.636719 32.679688 -7.636719 Z M 1.0625 0 C 9.765625 -1.546875 14.695312 -1.355469 23.398438 0.96875 C 35.195312 -1.449219 42.542969 -13.34375 42.542969 -34.226562 C 42.542969 -55.308594 30.554688 -68.648438 18.757812 -68.648438 C 11.894531 -66.328125 8.023438 -66.136719 1.160156 -67.683594 C 6.671875 -56.757812 9.476562 -45.636719 9.476562 -33.9375 C 9.476562 -22.527344 6.671875 -11.023438 1.0625 0 Z M 1.0625 0 "/></g></g></g><g fill="#3f542a" fill-opacity="1"><g transform="translate(262.432795, 73.382796)"><g><path d="M 23.785156 -34.613281 C 23.785156 -34.324219 23.398438 -34.132812 22.722656 -34.132812 C 20.304688 -34.132812 14.214844 -36.839844 8.992188 -36.839844 C 4.738281 -36.839844 1.0625 -34.90625 1.0625 -28.425781 C 1.0625 -18.371094 9.960938 -4.542969 20.980469 0.96875 C 25.621094 -1.449219 40.417969 -2.804688 41.867188 -32.679688 C 37.902344 -30.167969 32.292969 -28.332031 26.6875 -27.363281 C 29.972656 -22.140625 32.679688 -16.726562 32.679688 -13.246094 C 32.679688 -10.925781 31.90625 -9.476562 29.585938 -9.476562 C 22.238281 -9.476562 6.1875 -24.945312 6.1875 -31.617188 C 6.1875 -33.550781 7.445312 -34.226562 9.765625 -34.226562 C 14.308594 -34.226562 18.855469 -31.617188 23.300781 -31.617188 C 25.621094 -31.617188 26.878906 -32.292969 26.878906 -33.839844 C 26.878906 -39.351562 10.539062 -42.058594 10.539062 -52.695312 C 10.539062 -55.015625 11.3125 -59.949219 13.632812 -59.949219 C 17.308594 -59.949219 24.945312 -57.820312 31.519531 -41.191406 C 31.8125 -51.148438 34.132812 -58.691406 39.449219 -67.683594 C 29.105469 -67.683594 28.621094 -68.554688 21.175781 -68.554688 C 13.054688 -68.554688 2.417969 -62.847656 2.417969 -52.695312 C 2.417969 -43.800781 23.785156 -37.03125 23.785156 -34.613281 Z M 23.785156 -34.613281 "/></g></g></g></svg>