<svg xmlns="http://www.w3.org/2000/svg" xmlns:xlink="http://www.w3.org/1999/xlink" width="600" zoomAndPan="magnify" viewBox="0 0 450 74.999997" height="100" preserveAspectRatio="xMidYMid meet" version="1.0"><defs><g/></defs><g fill="#3f542a" fill-opacity="1"><g transform="translate(66.659381, 73.382796)"><g><path d="M 26.203125 -43.703125 L 36.839844 -48.25 C 36.066406 -55.308594 31.714844 -68.648438 20.402344 -68.648438 C 9.089844 -68.648438 0.96875 -54.917969 0.96875 -34.035156 C 0.96875 -12.957031 9.089844 0.96875 20.402344 0.96875 C 34.710938 0.96875 37.613281 -21.660156 37.613281 -36.066406 L 27.167969 -33.261719 C 28.425781 -29.78125 32.777344 -18.757812 32.777344 -12.667969 C 32.777344 -9.765625 31.90625 -7.636719 29.394531 -7.636719 C 16.339844 -7.636719 8.023438 -37.324219 8.023438 -52.597656 C 8.023438 -57.917969 8.992188 -61.496094 11.121094 -61.496094 C 17.789062 -61.496094 23.6875 -49.988281 26.203125 -43.703125 Z M 26.203125 -43.703125 "/></g></g></g><g fill="#3f542a" fill-opacity="1"><g transform="translate(105.234573, 73.382796)"><g><path d="M 0.96875 -34.035156 C 0.96875 -13.054688 8.992188 0.96875 20.113281 0.96875 C 31.132812 0.96875 39.257812 -13.441406 39.257812 -34.421875 C 39.257812 -55.308594 31.132812 -68.648438 20.113281 -68.648438 C 8.796875 -68.648438 0.96875 -54.917969 0.96875 -34.035156 Z M 29.394531 -7.636719 C 16.339844 -7.636719 8.023438 -37.324219 8.023438 -52.597656 C 8.023438 -57.917969 8.992188 -61.496094 11.121094 -61.496094 C 20.113281 -61.496094 32.875 -34.421875 32.875 -15.277344 C 32.875 -10.636719 31.8125 -7.636719 29.394531 -7.636719 Z M 29.394531 -7.636719 "/></g></g></g><g fill="#3f542a" fill-opacity="1"><g transform="translate(145.55, 73.382796)"><g><path d="M 49.023438 0 C 43.027344 -10.441406 39.546875 -22.433594 39.546875 -33.839844 C 39.546875 -45.25 43.027344 -57.242188 49.023438 -67.683594 C 44.574219 -66.714844 40.996094 -66.234375 37.417969 -66.234375 C 33.9375 -66.234375 30.457031 -66.714844 25.914062 -67.683594 C 34.132812 -51.921875 36.453125 -38.964844 36.453125 -30.652344 C 36.453125 -23.980469 35 -20.207031 33.839844 -20.207031 C 19.53125 -20.207031 31.425781 -68.648438 10.636719 -68.648438 C 7.734375 -68.648438 2.609375 -67.683594 0.96875 -67.683594 C 6.960938 -57.242188 10.441406 -45.25 10.441406 -33.839844 C 10.441406 -22.433594 6.960938 -10.441406 0.96875 0 C 5.511719 -0.96875 8.992188 -1.449219 12.472656 -1.449219 C 16.050781 -1.449219 19.628906 -0.96875 24.074219 0 C 15.855469 -15.855469 13.535156 -28.8125 13.535156 -37.128906 C 13.535156 -43.703125 14.988281 -47.476562 16.050781 -47.476562 C 30.265625 -47.476562 18.566406 0.96875 39.257812 0.96875 C 42.253906 0.96875 47.378906 0 49.023438 0 Z M 49.023438 0 "/></g></g></g><g fill="#3f542a" fill-opacity="1"><g transform="translate(195.533394, 73.382796)"><g><path d="M 38.964844 -41.191406 C 38.964844 -48.925781 41.671875 -58.691406 46.992188 -67.683594 C 40.996094 -66.714844 36.355469 -66.234375 31.714844 -66.234375 C 27.074219 -66.234375 17.308594 -65.75 0.96875 -67.683594 C 5.125 -60.816406 8.992188 -48.925781 8.992188 -41.191406 L 9.863281 -41.191406 C 10.25 -47.089844 11.988281 -59.851562 16.050781 -59.851562 C 21.753906 -59.851562 22.820312 -47.570312 22.820312 -43.800781 C 22.820312 -29.394531 20.5 -15.375 12.761719 0 C 22.140625 -1.933594 28.039062 -1.933594 37.324219 0 C 28.8125 -20.304688 21.078125 -59.949219 26.6875 -59.949219 C 31.039062 -59.949219 38 -48.925781 38.097656 -41.191406 Z M 38.964844 -41.191406 "/></g></g></g><g fill="#3f542a" fill-opacity="1"><g transform="translate(243.486515, 73.382796)"><g><path d="M 0.96875 0 C 5.703125 -0.96875 9.28125 -1.449219 12.957031 -1.449219 C 16.628906 -1.449219 20.304688 -0.96875 24.945312 0 C 18.371094 -24.847656 15.855469 -40.996094 15.855469 -50.277344 C 15.855469 -56.855469 17.113281 -59.949219 19.046875 -59.949219 C 23.398438 -59.949219 32.972656 -44.476562 32.972656 -26.105469 C 32.972656 -17.597656 30.941406 -8.507812 25.527344 0 C 29.878906 -0.96875 33.261719 -1.449219 36.644531 -1.449219 C 40.03125 -1.449219 43.414062 -0.96875 47.667969 0 C 39.933594 -15.375 34.808594 -29.394531 34.808594 -43.800781 C 34.808594 -51.535156 36.355469 -59.367188 39.546875 -67.683594 C 33.648438 -66.714844 28.910156 -66.234375 24.269531 -66.234375 C 19.628906 -66.234375 14.988281 -66.714844 9.089844 -67.683594 C 12.28125 -59.367188 13.730469 -51.535156 13.730469 -43.800781 C 13.730469 -29.394531 8.703125 -15.375 0.96875 0 Z M 0.96875 0 "/></g></g></g><g fill="#3f542a" fill-opacity="1"><g transform="translate(292.116394, 73.382796)"><g><path d="M 26.203125 -43.703125 L 36.839844 -48.25 C 36.066406 -55.308594 31.714844 -68.648438 20.402344 -68.648438 C 9.089844 -68.648438 0.96875 -54.917969 0.96875 -34.035156 C 0.96875 -12.957031 9.089844 0.96875 20.402344 0.96875 C 34.710938 0.96875 37.613281 -21.660156 37.613281 -36.066406 L 27.167969 -33.261719 C 28.425781 -29.78125 32.777344 -18.757812 32.777344 -12.667969 C 32.777344 -9.765625 31.90625 -7.636719 29.394531 -7.636719 C 16.339844 -7.636719 8.023438 -37.324219 8.023438 -52.597656 C 8.023438 -57.917969 8.992188 -61.496094 11.121094 -61.496094 C 17.789062 -61.496094 23.6875 -49.988281 26.203125 -43.703125 Z M 26.203125 -43.703125 "/></g></g></g><g fill="#3f542a" fill-opacity="1"><g transform="translate(330.691586, 73.382796)"><g><path d="M 38.964844 -41.191406 C 38.964844 -48.925781 41.671875 -58.691406 46.992188 -67.683594 C 40.996094 -66.714844 36.355469 -66.234375 31.714844 -66.234375 C 27.074219 -66.234375 17.308594 -65.75 0.96875 -67.683594 C 5.125 -60.816406 8.992188 -48.925781 8.992188 -41.191406 L 9.863281 -41.191406 C 10.25 -47.089844 11.988281 -59.851562 16.050781 -59.851562 C 21.753906 -59.851562 22.820312 -47.570312 22.820312 -43.800781 C 22.820312 -29.394531 20.5 -15.375 12.761719 0 C 22.140625 -1.933594 28.039062 -1.933594 37.324219 0 C 28.8125 -20.304688 21.078125 -59.949219 26.6875 -59.949219 C 31.039062 -59.949219 38 -48.925781 38.097656 -41.191406 Z M 38.964844 -41.191406 "/></g></g></g></svg>