<svg xmlns="http://www.w3.org/2000/svg" xmlns:xlink="http://www.w3.org/1999/xlink" width="500" zoomAndPan="magnify" viewBox="0 0 375 374.999991" height="500" preserveAspectRatio="xMidYMid meet" version="1.0"><defs><g/></defs><g fill="#324031" fill-opacity="1"><g transform="translate(45.362395, 215.222466)"><g><path d="M 34.917969 -95.996094 C 29.378906 -108.785156 26.859375 -126.867188 29.210938 -145.539062 C 19.992188 -139.648438 12.667969 -135.527344 4.996094 -132.203125 C -2.675781 -128.878906 -18.472656 -121.085938 -46.871094 -112.582031 C -35.082031 -104.210938 -20.171875 -87.320312 -14.632812 -74.53125 L -13.195312 -75.15625 C -16.777344 -85.183594 -23.042969 -107.527344 -16.328125 -110.4375 C -6.898438 -114.519531 3.65625 -94.984375 6.355469 -88.75 C 16.671875 -64.933594 22.875 -40.09375 21.097656 -9.140625 C 35.21875 -19.054688 44.96875 -23.277344 61.699219 -26.726562 C 33.089844 -54.199219 -8.085938 -114.195312 1.183594 -118.210938 C 8.378906 -121.328125 27.78125 -108.09375 33.480469 -95.375 Z M 34.917969 -95.996094 "/></g></g></g><g fill="#324031" fill-opacity="1"><g transform="translate(110.547574, 184.67898)"><g><path d="M 1.726562 -0.226562 C 9.964844 -3.058594 16.242188 -4.757812 22.808594 -5.613281 C 29.371094 -6.46875 36.046875 -6.464844 44.5625 -5.820312 C 27.023438 -48.675781 18.765625 -76.9375 16.597656 -93.515625 C 15.066406 -105.261719 16.589844 -111.082031 20.042969 -111.535156 C 27.816406 -112.550781 48.523438 -87.144531 52.808594 -54.328125 C 54.796875 -39.128906 53.289062 -22.417969 45.601562 -5.953125 C 53.148438 -8.695312 59.082031 -10.351562 65.125 -11.140625 C 71.171875 -11.929688 77.328125 -11.855469 85.15625 -11.121094 C 67.75 -36.777344 55.324219 -60.628906 51.964844 -86.367188 C 50.160156 -100.183594 51.097656 -114.535156 54.859375 -130.132812 C 44.546875 -127.03125 36.195312 -125.0625 27.90625 -123.980469 C 19.613281 -122.898438 11.210938 -122.679688 0.449219 -123.03125 C 8.089844 -108.917969 12.503906 -95.265625 14.308594 -81.449219 C 17.671875 -55.710938 11.960938 -29.492188 1.726562 -0.226562 Z M 1.726562 -0.226562 "/></g></g></g><g fill="#324031" fill-opacity="1"><g transform="translate(182.553602, 172.974235)"><g><path d="M 87.257812 13.632812 C 79.492188 -6.621094 76.628906 -28.929688 79.800781 -49.238281 C 82.976562 -69.546875 92.503906 -89.921875 106.078125 -106.84375 C 97.894531 -106.359375 91.390625 -106.492188 85.023438 -107.488281 C 78.828125 -108.457031 72.765625 -110.285156 64.945312 -113.269531 C 75.191406 -82.929688 75.71875 -59.222656 73.40625 -44.421875 C 71.550781 -32.546875 67.921875 -26.238281 65.855469 -26.558594 C 40.386719 -30.539062 75.023438 -113.457031 38.023438 -119.238281 C 32.859375 -120.042969 23.46875 -119.75 20.542969 -120.207031 C 28.308594 -99.953125 31.171875 -77.640625 28 -57.332031 C 24.824219 -37.023438 15.296875 -16.652344 1.722656 0.269531 C 10.078125 -0.1875 16.410156 -0.0820312 22.605469 0.886719 C 28.972656 1.882812 35.207031 3.738281 42.855469 6.695312 C 32.636719 -23.816406 32.109375 -47.523438 34.417969 -62.324219 C 36.25 -74.027344 39.878906 -80.335938 41.773438 -80.039062 C 67.070312 -76.089844 32.777344 6.882812 69.605469 12.636719 C 74.941406 13.472656 84.332031 13.175781 87.257812 13.632812 Z M 87.257812 13.632812 "/></g></g></g><g fill="#324031" fill-opacity="1"><g transform="translate(257.786936, 183.673612)"><g><path d="M 76.625 -104.757812 L 105.042969 -107.621094 L 103 -119.621094 L 76.242188 -106.457031 Z M 64.6875 -39.253906 C 64.472656 -38.777344 63.695312 -38.746094 62.582031 -39.246094 C 58.613281 -41.035156 50.609375 -49.992188 42.035156 -53.855469 C 35.046875 -57.003906 27.578125 -56.546875 22.785156 -45.90625 C 15.34375 -29.386719 19.722656 -0.09375 33.746094 17.117188 C 43.160156 16.582031 68.460938 25.304688 92.953125 -22.695312 C 84.582031 -21.5 74.011719 -22.632812 64.085938 -25.195312 C 65.621094 -14.1875 66.058594 -3.289062 63.484375 2.429688 C 61.765625 6.238281 59.421875 8.050781 55.609375 6.332031 C 43.539062 0.894531 28.625 -36.394531 33.5625 -47.355469 C 34.996094 -50.53125 37.558594 -50.710938 41.371094 -48.996094 C 48.835938 -45.632812 54.367188 -37.980469 61.675781 -34.6875 C 65.484375 -32.972656 68.050781 -33.152344 69.195312 -35.695312 C 73.273438 -44.746094 48.4375 -61.285156 56.308594 -78.757812 C 58.027344 -82.566406 62.945312 -90.09375 66.757812 -88.378906 C 72.792969 -85.660156 83.765625 -76.511719 82.257812 -44.328125 C 90.105469 -60.472656 99.5 -71.144531 114.886719 -81.976562 C 97.894531 -89.632812 97.746094 -91.421875 85.515625 -96.929688 C 72.175781 -102.941406 50.484375 -101.441406 42.96875 -84.765625 C 36.386719 -70.15625 66.476562 -43.222656 64.6875 -39.253906 Z M 64.6875 -39.253906 "/></g></g></g><g fill="#324031" fill-opacity="1"><g transform="translate(31.142421, 296.68944)"><g><path d="M 45.136719 -48.527344 C 43.960938 -45.0625 46.652344 -43.78125 48.964844 -43 C 57.542969 -40.09375 62.976562 -36.042969 51.90625 -3.378906 C 50.0625 2.066406 47.167969 7.890625 42.566406 14.421875 C 49.722656 15.007812 55.117188 15.917969 60.394531 17.707031 C 65.675781 19.496094 70.511719 22.054688 76.550781 25.9375 C 73.449219 7.414062 83.855469 -36.328125 60.59375 -44.210938 C 56.46875 -45.605469 53.050781 -45.292969 49.917969 -46.355469 C 48.761719 -46.746094 48.15625 -47.136719 48.4375 -47.960938 C 48.941406 -49.445312 51.699219 -50.53125 56 -51.28125 C 80.480469 -55.679688 97.929688 -64.296875 110.074219 -91.449219 C 104.070312 -91.644531 99.5 -92.269531 95.046875 -93.78125 C 90.757812 -95.234375 86.746094 -97.511719 81.695312 -101.0625 C 80.660156 -92.035156 79.082031 -84.660156 77.070312 -78.722656 C 70.921875 -60.574219 61.976562 -56.429688 56.957031 -55.1875 C 50.722656 -53.621094 46.476562 -52.488281 45.136719 -48.527344 Z M 40.945312 -114.871094 C 47.8125 -110.707031 53.308594 -107.925781 59.082031 -105.96875 C 64.855469 -104.011719 70.910156 -102.878906 78.726562 -102.070312 C 62.460938 -87.71875 49.589844 -69.273438 42.992188 -49.804688 C 36.398438 -30.335938 35.402344 -7.867188 39.59375 13.417969 C 32.730469 9.25 27.234375 6.46875 21.460938 4.511719 C 15.6875 2.554688 9.632812 1.425781 1.648438 0.558594 C 17.972656 -13.957031 30.84375 -32.402344 37.441406 -51.871094 C 44.035156 -71.339844 44.972656 -93.644531 40.945312 -114.871094 Z M 40.945312 -114.871094 "/></g></g></g><g fill="#324031" fill-opacity="1"><g transform="translate(124.348623, 326.427315)"><g><path d="M 1.738281 0.09375 C 10.355469 -1.1875 16.839844 -1.707031 23.449219 -1.351562 C 30.058594 -0.996094 36.621094 0.230469 44.875 2.421875 C 35.460938 -42.921875 32.503906 -72.210938 33.40625 -88.910156 C 34.042969 -100.738281 36.605469 -106.183594 40.085938 -105.996094 C 47.910156 -105.574219 63.628906 -76.8125 61.847656 -43.765625 C 61.023438 -28.457031 56.488281 -12.304688 45.921875 2.476562 C 53.839844 1.160156 59.976562 0.617188 66.066406 0.945312 C 72.152344 1.277344 78.195312 2.472656 85.753906 4.625 C 73.328125 -23.78125 65.472656 -49.5 66.871094 -75.417969 C 67.621094 -89.332031 71.164062 -103.273438 77.710938 -117.921875 C 67.007812 -116.753906 58.4375 -116.34375 50.085938 -116.792969 C 41.738281 -117.246094 33.433594 -118.566406 22.917969 -120.875 C 27.851562 -105.609375 29.699219 -91.378906 28.949219 -77.464844 C 27.550781 -51.546875 17.148438 -26.8125 1.738281 0.09375 Z M 1.738281 0.09375 "/></g></g></g><g fill="#324031" fill-opacity="1"><g transform="translate(223.384472, 328.23963)"><g><path d="M -17.097656 -120.746094 C -3.671875 -103.816406 5.859375 -83.628906 9.0625 -63.324219 C 12.261719 -43.023438 9.433594 -20.707031 1.71875 -0.269531 C 9.191406 -3.210938 15.078125 -5.023438 21.101562 -5.972656 C 27.125 -6.921875 33.28125 -7.011719 41.296875 -6.511719 C 27.699219 -23.414062 18.140625 -43.773438 14.9375 -64.078125 C 11.738281 -84.378906 14.570312 -106.695312 22.308594 -126.960938 C 15.007812 -124.042969 9.121094 -122.234375 3.097656 -121.285156 C -2.925781 -120.335938 -9.082031 -120.246094 -17.097656 -120.746094 Z M -17.097656 -120.746094 "/></g></g></g><g fill="#324031" fill-opacity="1"><g transform="translate(276.720079, 320.224224)"><g><path d="M -18.960938 -58.335938 C -6.257812 -22.734375 15.84375 -3.800781 34.710938 -10.53125 C 53.414062 -17.203125 58.476562 -46.566406 45.777344 -82.167969 C 33.136719 -117.609375 11.28125 -135.332031 -7.425781 -128.660156 C -26.621094 -121.816406 -31.601562 -93.777344 -18.960938 -58.335938 Z M 45.253906 -30.753906 C 23.105469 -22.851562 -8.972656 -68.1875 -18.21875 -94.109375 C -21.4375 -103.136719 -21.960938 -109.789062 -18.351562 -111.078125 C -3.09375 -116.519531 34.949219 -78.304688 46.539062 -45.820312 C 49.347656 -37.945312 49.355469 -32.214844 45.253906 -30.753906 Z M 45.253906 -30.753906 "/></g></g></g></svg>