<svg xmlns="http://www.w3.org/2000/svg" xmlns:xlink="http://www.w3.org/1999/xlink" width="2000" zoomAndPan="magnify" viewBox="0 0 1500 1499.999933" height="2000" preserveAspectRatio="xMidYMid meet" version="1.0"><defs><g/></defs><g fill="#ffbd59" fill-opacity="1"><g transform="translate(151.925513, 350.486253)"><g><path d="M 163.15625 -38.132812 C 97.988281 -38.132812 56.476562 -186.324219 56.476562 -262.59375 C 56.476562 -289.140625 61.304688 -307.003906 71.921875 -307.003906 C 126.953125 -307.003906 180.53125 -150.605469 180.53125 -76.269531 C 180.53125 -55.511719 172.328125 -38.132812 163.15625 -38.132812 Z M 5.308594 0 C 48.753906 -7.722656 73.371094 -6.757812 116.816406 4.828125 C 175.707031 -7.242188 212.390625 -66.613281 212.390625 -170.878906 C 212.390625 -276.109375 152.535156 -342.722656 93.644531 -342.722656 C 59.371094 -331.136719 40.066406 -330.171875 5.792969 -337.894531 C 33.308594 -283.347656 47.304688 -227.839844 47.304688 -169.429688 C 47.304688 -112.472656 33.308594 -55.027344 5.308594 0 Z M 5.308594 0 "/></g></g></g><g fill="#ffbd59" fill-opacity="1"><g transform="translate(368.660802, 350.486253)"><g><path d="M 118.746094 -172.808594 C 118.746094 -171.359375 116.816406 -170.394531 113.4375 -170.394531 C 101.367188 -170.394531 70.957031 -183.910156 44.890625 -183.910156 C 23.652344 -183.910156 5.308594 -174.257812 5.308594 -141.914062 C 5.308594 -91.714844 49.71875 -22.6875 104.746094 4.828125 C 127.917969 -7.242188 201.773438 -14 209.011719 -163.15625 C 189.222656 -150.605469 161.222656 -141.433594 133.226562 -136.605469 C 149.640625 -110.539062 163.15625 -83.507812 163.15625 -66.132812 C 163.15625 -54.546875 159.292969 -47.304688 147.707031 -47.304688 C 111.023438 -47.304688 30.894531 -124.539062 30.894531 -157.84375 C 30.894531 -167.5 37.167969 -170.878906 48.753906 -170.878906 C 71.441406 -170.878906 94.128906 -157.84375 116.332031 -157.84375 C 127.917969 -157.84375 134.191406 -161.222656 134.191406 -168.949219 C 134.191406 -196.460938 52.613281 -209.976562 52.613281 -263.074219 C 52.613281 -274.660156 56.476562 -299.277344 68.0625 -299.277344 C 86.40625 -299.277344 124.539062 -288.660156 157.363281 -205.632812 C 158.8125 -255.351562 170.394531 -293.003906 196.945312 -337.894531 C 145.296875 -337.894531 142.882812 -342.238281 105.714844 -342.238281 C 65.164062 -342.238281 12.066406 -313.761719 12.066406 -263.074219 C 12.066406 -218.667969 118.746094 -184.878906 118.746094 -172.808594 Z M 118.746094 -172.808594 "/></g></g></g><g fill="#ffbd59" fill-opacity="1"><g transform="translate(582.017154, 350.486253)"><g><path d="M 49.71875 -141.914062 C 47.304688 -117.78125 39.097656 -68.0625 4.828125 0 C 32.824219 3.378906 78.199219 4.828125 104.746094 4.828125 C 164.601562 4.828125 197.910156 -41.511719 197.910156 -86.40625 C 197.910156 -140.949219 144.8125 -170.394531 101.851562 -198.875 C 80.128906 -213.355469 47.789062 -235.078125 47.304688 -265.007812 C 47.304688 -275.625 51.648438 -299.277344 64.199219 -299.277344 C 83.992188 -299.277344 111.988281 -281.902344 170.394531 -205.632812 C 171.359375 -244.734375 185.84375 -298.796875 201.289062 -337.894531 C 154.464844 -337.894531 154.464844 -342.238281 104.746094 -342.238281 C 61.304688 -342.238281 4.828125 -313.761719 4.828125 -263.074219 C 4.828125 -224.941406 93.644531 -202.738281 136.125 -156.878906 C 153.5 -138.054688 163.636719 -111.503906 163.636719 -85.4375 C 163.636719 -63.71875 155.914062 -47.304688 144.328125 -47.304688 C 110.539062 -47.304688 54.0625 -86.886719 49.71875 -141.914062 Z M 49.71875 -141.914062 "/></g></g></g><g fill="#ffbd59" fill-opacity="1"><g transform="translate(787.167493, 350.486253)"><g><path d="M 5.308594 -337.894531 C 34.753906 -285.761719 52.132812 -226.390625 52.132812 -169.429688 C 52.132812 -112.472656 34.753906 -52.613281 4.828125 0 C 26.550781 -4.828125 43.445312 -7.242188 60.339844 -7.242188 C 77.234375 -7.242188 94.128906 -4.828125 115.851562 0 C 85.921875 -52.132812 68.542969 -111.988281 68.542969 -168.949219 C 68.542969 -225.90625 85.921875 -285.761719 115.851562 -337.894531 C 94.609375 -333.066406 77.714844 -330.65625 60.820312 -330.65625 C 43.925781 -330.65625 27.03125 -333.066406 5.308594 -337.894531 Z M 5.308594 -337.894531 "/></g></g></g><g fill="#ffbd59" fill-opacity="1"><g transform="translate(906.878726, 350.486253)"><g><path d="M 130.8125 -217.699219 L 183.910156 -240.871094 C 180.050781 -276.109375 158.328125 -342.722656 101.851562 -342.722656 C 44.890625 -342.722656 4.828125 -274.179688 4.828125 -169.914062 C 4.828125 -64.683594 44.890625 4.828125 101.851562 4.828125 C 172.808594 4.828125 187.289062 -108.125 187.289062 -180.050781 C 173.292969 -171.84375 156.878906 -167.980469 136.125 -167.980469 C 128.882812 -167.980469 120.675781 -168.464844 111.503906 -169.914062 C 127.433594 -136.125 159.777344 -78.679688 159.777344 -53.582031 C 159.777344 -44.890625 154.464844 -38.132812 146.742188 -38.132812 C 81.09375 -38.132812 40.066406 -186.324219 40.066406 -262.59375 C 40.066406 -289.140625 44.890625 -307.003906 55.511719 -307.003906 C 89.300781 -307.003906 118.261719 -249.078125 130.8125 -217.699219 Z M 130.8125 -217.699219 "/></g></g></g><g fill="#ffbd59" fill-opacity="1"><g transform="translate(1098.513137, 350.486253)"><g><path d="M 244.734375 0 C 214.804688 -52.132812 197.425781 -111.988281 197.425781 -168.949219 C 197.425781 -225.90625 214.804688 -285.761719 244.734375 -337.894531 C 222.527344 -333.066406 204.667969 -330.65625 186.808594 -330.65625 C 169.429688 -330.65625 152.054688 -333.066406 129.367188 -337.894531 C 170.394531 -259.214844 181.980469 -194.53125 181.980469 -153.019531 C 181.980469 -119.710938 174.738281 -100.886719 168.949219 -100.886719 C 97.507812 -100.886719 156.878906 -342.722656 53.097656 -342.722656 C 38.617188 -342.722656 13.03125 -337.894531 4.828125 -337.894531 C 34.753906 -285.761719 52.132812 -225.90625 52.132812 -168.949219 C 52.132812 -111.988281 34.753906 -52.132812 4.828125 0 C 27.515625 -4.828125 44.890625 -7.242188 62.269531 -7.242188 C 80.128906 -7.242188 97.988281 -4.828125 120.195312 0 C 79.164062 -79.164062 67.578125 -143.847656 67.578125 -185.359375 C 67.578125 -218.183594 74.820312 -237.007812 80.128906 -237.007812 C 151.085938 -237.007812 92.679688 4.828125 195.980469 4.828125 C 210.941406 4.828125 236.527344 0 244.734375 0 Z M 244.734375 0 "/></g></g></g><g fill="#ffbd59" fill-opacity="1"><g transform="translate(87.730206, 745.736219)"><g><path d="M 130.8125 -218.183594 L 183.910156 -240.871094 C 180.050781 -276.109375 158.328125 -342.722656 101.851562 -342.722656 C 45.375 -342.722656 4.828125 -274.179688 4.828125 -169.914062 C 4.828125 -64.683594 45.375 4.828125 101.851562 4.828125 C 173.292969 4.828125 187.773438 -108.125 187.773438 -180.050781 L 135.640625 -166.050781 C 141.914062 -148.675781 163.636719 -93.644531 163.636719 -63.234375 C 163.636719 -48.753906 159.292969 -38.132812 146.742188 -38.132812 C 81.578125 -38.132812 40.066406 -186.324219 40.066406 -262.59375 C 40.066406 -289.140625 44.890625 -307.003906 55.511719 -307.003906 C 88.816406 -307.003906 118.261719 -249.558594 130.8125 -218.183594 Z M 130.8125 -218.183594 "/></g></g></g><g fill="#ffbd59" fill-opacity="1"><g transform="translate(279.364662, 745.736219)"><g><path d="M 113.917969 -157.84375 C 129.847656 -157.84375 135.15625 -130.332031 135.15625 -95.09375 C 135.15625 -58.40625 129.847656 -16.410156 126.46875 0 C 142.882812 -4.828125 158.8125 -7.242188 173.773438 -7.242188 C 189.222656 -7.242188 204.183594 -4.828125 220.597656 0 C 208.53125 -52.132812 179.566406 -171.84375 126.953125 -171.84375 C 112.472656 -171.84375 94.128906 -162.671875 86.886719 -162.671875 C 84.957031 -162.671875 83.507812 -163.15625 83.507812 -165.085938 C 83.507812 -169.429688 89.785156 -174.738281 100.402344 -180.53125 C 134.191406 -199.839844 202.738281 -219.632812 202.738281 -263.074219 C 202.738281 -325.34375 122.609375 -342.722656 59.855469 -342.722656 C 39.097656 -342.722656 18.824219 -340.792969 5.308594 -337.894531 C 34.753906 -285.761719 52.132812 -225.90625 52.132812 -168.949219 C 52.132812 -111.988281 34.753906 -51.648438 4.828125 0 C 26.550781 -4.828125 43.445312 -7.242188 60.339844 -7.242188 C 77.234375 -7.242188 97.507812 -4.828125 119.230469 0 C 59.855469 -117.78125 41.03125 -307.003906 71.441406 -307.003906 C 87.851562 -307.003906 107.644531 -291.074219 124.539062 -262.109375 C 162.191406 -197.910156 74.820312 -200.324219 74.820312 -164.601562 C 74.820312 -155.914062 82.542969 -153.019531 88.816406 -153.019531 C 97.023438 -153.019531 107.644531 -157.84375 113.917969 -157.84375 Z M 113.917969 -157.84375 "/></g></g></g><g fill="#ffbd59" fill-opacity="1"><g transform="translate(504.305955, 745.736219)"><g><path d="M 118.746094 -172.808594 C 118.746094 -171.359375 116.816406 -170.394531 113.4375 -170.394531 C 101.367188 -170.394531 70.957031 -183.910156 44.890625 -183.910156 C 23.652344 -183.910156 5.308594 -174.257812 5.308594 -141.914062 C 5.308594 -91.714844 49.71875 -22.6875 104.746094 4.828125 C 127.917969 -7.242188 201.773438 -14 209.011719 -163.15625 C 189.222656 -150.605469 161.222656 -141.433594 133.226562 -136.605469 C 149.640625 -110.539062 163.15625 -83.507812 163.15625 -66.132812 C 163.15625 -54.546875 159.292969 -47.304688 147.707031 -47.304688 C 111.023438 -47.304688 30.894531 -124.539062 30.894531 -157.84375 C 30.894531 -167.5 37.167969 -170.878906 48.753906 -170.878906 C 71.441406 -170.878906 94.128906 -157.84375 116.332031 -157.84375 C 127.917969 -157.84375 134.191406 -161.222656 134.191406 -168.949219 C 134.191406 -196.460938 52.613281 -209.976562 52.613281 -263.074219 C 52.613281 -274.660156 56.476562 -299.277344 68.0625 -299.277344 C 86.40625 -299.277344 124.539062 -288.660156 157.363281 -205.632812 C 158.8125 -255.351562 170.394531 -293.003906 196.945312 -337.894531 C 145.296875 -337.894531 142.882812 -342.238281 105.714844 -342.238281 C 65.164062 -342.238281 12.066406 -313.761719 12.066406 -263.074219 C 12.066406 -218.667969 118.746094 -184.878906 118.746094 -172.808594 Z M 118.746094 -172.808594 "/></g></g></g><g fill="#ffbd59" fill-opacity="1"><g transform="translate(717.662307, 745.736219)"><g><path d="M 4.828125 0 C 28.480469 -4.828125 46.339844 -7.242188 64.683594 -7.242188 C 83.027344 -7.242188 101.367188 -4.828125 124.539062 0 C 91.714844 -124.054688 79.164062 -204.667969 79.164062 -251.007812 C 79.164062 -283.832031 85.4375 -299.277344 95.09375 -299.277344 C 116.816406 -299.277344 164.601562 -222.046875 164.601562 -130.332031 C 164.601562 -87.851562 154.464844 -42.476562 127.433594 0 C 149.15625 -4.828125 166.050781 -7.242188 182.945312 -7.242188 C 199.839844 -7.242188 216.734375 -4.828125 237.976562 0 C 199.359375 -76.75 173.773438 -146.742188 173.773438 -218.667969 C 173.773438 -257.28125 181.496094 -296.382812 197.425781 -337.894531 C 167.980469 -333.066406 144.328125 -330.65625 121.160156 -330.65625 C 97.988281 -330.65625 74.820312 -333.066406 45.375 -337.894531 C 61.304688 -296.382812 68.542969 -257.28125 68.542969 -218.667969 C 68.542969 -146.742188 43.445312 -76.75 4.828125 0 Z M 4.828125 0 "/></g></g></g><g fill="#ffbd59" fill-opacity="1"><g transform="translate(959.498286, 745.736219)"><g><path d="M 194.53125 -205.632812 C 194.53125 -244.25 208.046875 -293.003906 234.597656 -337.894531 C 204.667969 -333.066406 181.496094 -330.65625 158.328125 -330.65625 C 135.15625 -330.65625 86.40625 -328.242188 4.828125 -337.894531 C 25.582031 -303.621094 44.890625 -244.25 44.890625 -205.632812 L 49.234375 -205.632812 C 51.167969 -235.078125 59.855469 -298.796875 80.128906 -298.796875 C 108.609375 -298.796875 113.917969 -237.492188 113.917969 -218.667969 C 113.917969 -146.742188 102.335938 -76.75 63.71875 0 C 110.539062 -9.652344 139.984375 -9.652344 186.324219 0 C 143.847656 -101.367188 105.230469 -299.277344 133.226562 -299.277344 C 154.949219 -299.277344 189.703125 -244.25 190.1875 -205.632812 Z M 194.53125 -205.632812 "/></g></g></g><g fill="#ffbd59" fill-opacity="1"><g transform="translate(1197.955328, 745.736219)"><g><path d="M 118.746094 -172.808594 C 118.746094 -171.359375 116.816406 -170.394531 113.4375 -170.394531 C 101.367188 -170.394531 70.957031 -183.910156 44.890625 -183.910156 C 23.652344 -183.910156 5.308594 -174.257812 5.308594 -141.914062 C 5.308594 -91.714844 49.71875 -22.6875 104.746094 4.828125 C 127.917969 -7.242188 201.773438 -14 209.011719 -163.15625 C 189.222656 -150.605469 161.222656 -141.433594 133.226562 -136.605469 C 149.640625 -110.539062 163.15625 -83.507812 163.15625 -66.132812 C 163.15625 -54.546875 159.292969 -47.304688 147.707031 -47.304688 C 111.023438 -47.304688 30.894531 -124.539062 30.894531 -157.84375 C 30.894531 -167.5 37.167969 -170.878906 48.753906 -170.878906 C 71.441406 -170.878906 94.128906 -157.84375 116.332031 -157.84375 C 127.917969 -157.84375 134.191406 -161.222656 134.191406 -168.949219 C 134.191406 -196.460938 52.613281 -209.976562 52.613281 -263.074219 C 52.613281 -274.660156 56.476562 -299.277344 68.0625 -299.277344 C 86.40625 -299.277344 124.539062 -288.660156 157.363281 -205.632812 C 158.8125 -255.351562 170.394531 -293.003906 196.945312 -337.894531 C 145.296875 -337.894531 142.882812 -342.238281 105.714844 -342.238281 C 65.164062 -342.238281 12.066406 -313.761719 12.066406 -263.074219 C 12.066406 -218.667969 118.746094 -184.878906 118.746094 -172.808594 Z M 118.746094 -172.808594 "/></g></g></g><g fill="#ffbd59" fill-opacity="1"><g transform="translate(296.734094, 1140.986185)"><g><path d="M 130.8125 -217.699219 L 183.910156 -240.871094 C 180.050781 -276.109375 158.328125 -342.722656 101.851562 -342.722656 C 44.890625 -342.722656 4.828125 -274.179688 4.828125 -169.914062 C 4.828125 -64.683594 44.890625 4.828125 101.851562 4.828125 C 172.808594 4.828125 187.289062 -108.125 187.289062 -180.050781 C 173.292969 -171.84375 156.878906 -167.980469 136.125 -167.980469 C 128.882812 -167.980469 120.675781 -168.464844 111.503906 -169.914062 C 127.433594 -136.125 159.777344 -78.679688 159.777344 -53.582031 C 159.777344 -44.890625 154.464844 -38.132812 146.742188 -38.132812 C 81.09375 -38.132812 40.066406 -186.324219 40.066406 -262.59375 C 40.066406 -289.140625 44.890625 -307.003906 55.511719 -307.003906 C 89.300781 -307.003906 118.261719 -249.078125 130.8125 -217.699219 Z M 130.8125 -217.699219 "/></g></g></g><g fill="#ffbd59" fill-opacity="1"><g transform="translate(488.36855, 1140.986185)"><g><path d="M 113.917969 -157.84375 C 129.847656 -157.84375 135.15625 -130.332031 135.15625 -95.09375 C 135.15625 -58.40625 129.847656 -16.410156 126.46875 0 C 142.882812 -4.828125 158.8125 -7.242188 173.773438 -7.242188 C 189.222656 -7.242188 204.183594 -4.828125 220.597656 0 C 208.53125 -52.132812 179.566406 -171.84375 126.953125 -171.84375 C 112.472656 -171.84375 94.128906 -162.671875 86.886719 -162.671875 C 84.957031 -162.671875 83.507812 -163.15625 83.507812 -165.085938 C 83.507812 -169.429688 89.785156 -174.738281 100.402344 -180.53125 C 134.191406 -199.839844 202.738281 -219.632812 202.738281 -263.074219 C 202.738281 -325.34375 122.609375 -342.722656 59.855469 -342.722656 C 39.097656 -342.722656 18.824219 -340.792969 5.308594 -337.894531 C 34.753906 -285.761719 52.132812 -225.90625 52.132812 -168.949219 C 52.132812 -111.988281 34.753906 -51.648438 4.828125 0 C 26.550781 -4.828125 43.445312 -7.242188 60.339844 -7.242188 C 77.234375 -7.242188 97.507812 -4.828125 119.230469 0 C 59.855469 -117.78125 41.03125 -307.003906 71.441406 -307.003906 C 87.851562 -307.003906 107.644531 -291.074219 124.539062 -262.109375 C 162.191406 -197.910156 74.820312 -200.324219 74.820312 -164.601562 C 74.820312 -155.914062 82.542969 -153.019531 88.816406 -153.019531 C 97.023438 -153.019531 107.644531 -157.84375 113.917969 -157.84375 Z M 113.917969 -157.84375 "/></g></g></g><g fill="#ffbd59" fill-opacity="1"><g transform="translate(713.309844, 1140.986185)"><g><path d="M 4.828125 -169.914062 C 4.828125 -65.164062 44.890625 4.828125 100.402344 4.828125 C 155.433594 4.828125 195.980469 -67.097656 195.980469 -171.84375 C 195.980469 -276.109375 155.433594 -342.722656 100.402344 -342.722656 C 43.925781 -342.722656 4.828125 -274.179688 4.828125 -169.914062 Z M 146.742188 -38.132812 C 81.578125 -38.132812 40.066406 -186.324219 40.066406 -262.59375 C 40.066406 -289.140625 44.890625 -307.003906 55.511719 -307.003906 C 100.402344 -307.003906 164.121094 -171.84375 164.121094 -76.269531 C 164.121094 -53.097656 158.8125 -38.132812 146.742188 -38.132812 Z M 146.742188 -38.132812 "/></g></g></g><g fill="#ffbd59" fill-opacity="1"><g transform="translate(913.633116, 1140.986185)"><g><path d="M 144.8125 -221.5625 C 152.535156 -221.5625 163.636719 -162.191406 163.636719 -62.753906 C 163.636719 -25.101562 182.464844 5.308594 216.253906 5.308594 C 230.25 5.308594 253.902344 0.484375 261.628906 0.484375 C 198.394531 -121.640625 227.839844 -227.839844 284.796875 -337.414062 C 261.628906 -332.585938 243.765625 -330.171875 225.90625 -330.171875 C 208.046875 -330.171875 190.1875 -332.585938 167.015625 -337.414062 C 182.464844 -307.96875 243.765625 -79.164062 188.738281 -79.164062 C 172.328125 -79.164062 174.738281 -236.042969 144.8125 -236.042969 C 114.402344 -236.042969 117.78125 -79.164062 101.367188 -79.164062 C 46.339844 -79.164062 107.160156 -307.96875 122.609375 -337.414062 C 99.4375 -332.585938 81.09375 -330.171875 63.234375 -330.171875 C 45.375 -330.171875 27.515625 -332.585938 4.828125 -337.414062 C 61.785156 -227.839844 91.230469 -121.640625 27.515625 0.484375 C 35.71875 0.484375 59.371094 5.308594 72.890625 5.308594 C 106.679688 5.308594 125.988281 -25.101562 125.988281 -62.753906 C 125.988281 -162.191406 137.089844 -221.5625 144.8125 -221.5625 Z M 144.8125 -221.5625 "/></g></g></g><g fill="#f9f6f1" fill-opacity="1"><g transform="translate(352.166019, 1269.866823)"><g><path d="M 0.941406 -65.796875 C 6.769531 -55.648438 10.152344 -43.992188 10.152344 -32.898438 C 10.152344 -21.808594 6.769531 -10.152344 0.941406 0 C 9.304688 -1.878906 15.886719 -1.878906 24.34375 0 C 12.785156 -22.933594 8.273438 -59.78125 15.039062 -59.78125 C 18.234375 -59.78125 22.089844 -56.679688 25.378906 -51.039062 C 33.558594 -37.035156 13.910156 -38.539062 17.578125 -22.464844 L 19.832031 -22.464844 C 13.722656 -34.777344 40.605469 -39.949219 40.605469 -51.230469 C 40.605469 -63.449219 25.003906 -66.738281 12.785156 -66.738281 C 8.835938 -66.738281 3.570312 -66.363281 0.941406 -65.796875 Z M 0.941406 -65.796875 "/></g></g></g><g fill="#f9f6f1" fill-opacity="1"><g transform="translate(393.80627, 1269.866823)"><g><path d="M 16.261719 0.941406 C 25.003906 0.941406 31.675781 -10.246094 31.675781 -26.507812 C 31.675781 -42.675781 25.097656 -53.109375 16.355469 -53.109375 C 7.613281 -53.109375 1.035156 -42.675781 1.035156 -26.507812 C 1.035156 -10.246094 7.707031 0.941406 16.261719 0.941406 Z M 9.117188 -47 C 22.089844 -47 30.832031 -5.167969 23.21875 -5.167969 C 10.339844 -5.167969 1.503906 -47 9.117188 -47 Z M 9.117188 -47 "/></g></g></g><g fill="#f9f6f1" fill-opacity="1"><g transform="translate(426.516892, 1269.866823)"><g><path d="M 24.34375 -49.160156 C 21.808594 -51.886719 18.800781 -53.109375 15.886719 -53.109375 C 13.160156 -53.109375 7.707031 -45.777344 9.398438 -52.167969 L 1.035156 -52.167969 C 1.035156 -41.734375 4.605469 -31.394531 4.605469 -20.679688 C 4.605469 -13.910156 3.664062 -6.769531 1.035156 0 L 16.261719 0 C 10.433594 -10.714844 6.578125 -21.902344 6.578125 -32.992188 C 6.578125 -37.976562 7.332031 -47 8.648438 -47 C 14.664062 -47 18.234375 -39.667969 20.492188 -34.875 C 21.335938 -39.667969 22.839844 -45.023438 24.34375 -49.160156 Z M 24.34375 -49.160156 "/></g></g></g><g fill="#f9f6f1" fill-opacity="1"><g transform="translate(451.895822, 1269.866823)"><g><path d="M 5.921875 -40.890625 C 5.828125 -40.792969 5.640625 -40.699219 5.453125 -40.792969 C 5.265625 -40.890625 5.167969 -41.171875 5.265625 -41.359375 C 9.777344 -49.535156 20.210938 -64.105469 7.800781 -64.105469 C 5.265625 -64.105469 3.382812 -64.011719 1.222656 -63.636719 C 6.578125 -53.578125 1.035156 -42.675781 1.035156 -26.601562 C 1.035156 -10.246094 4.792969 0.941406 13.160156 0.941406 C 20.679688 0.941406 25.941406 -8.367188 27.164062 -21.242188 L 21.335938 -21.242188 C 22.183594 -17.296875 23.78125 -5.167969 19.925781 -5.167969 C 14.570312 -5.167969 10.621094 -12.21875 7.800781 -19.644531 C 1.035156 -37.597656 6.390625 -43.804688 25.003906 -43.804688 L 24.628906 -52.167969 C 16.261719 -50.945312 9.398438 -45.777344 5.921875 -40.890625 Z M 5.921875 -40.890625 "/></g></g></g><g fill="#f9f6f1" fill-opacity="1"><g transform="translate(479.060683, 1269.866823)"><g><path d="M 10.058594 -40.511719 C 9.304688 -38.820312 8.835938 -38.914062 8.554688 -40.605469 C 7.894531 -44.085938 7.425781 -47.75 7.238281 -51.132812 C 7.050781 -59.40625 8.929688 -64.480469 11.5625 -64.480469 C 13.910156 -64.480469 17.390625 -60.441406 20.304688 -54.613281 L 28.199219 -58.65625 C 25.097656 -67.394531 20.210938 -70.5 18.800781 -70.5 C 3.664062 -65.234375 1.035156 -59.125 1.035156 -52.167969 C 1.035156 -31.300781 16.355469 -20.773438 1.035156 0 L 19.363281 0 C 11.46875 -14.945312 -1.035156 -43.332031 26.132812 -44.273438 L 25.003906 -52.167969 C 17.765625 -52.167969 12.3125 -45.496094 10.058594 -40.511719 Z M 10.058594 -40.511719 "/></g></g></g><g fill="#f9f6f1" fill-opacity="1"><g transform="translate(505.003591, 1269.866823)"><g><path d="M 16.261719 0.941406 C 25.003906 0.941406 31.675781 -10.246094 31.675781 -26.507812 C 31.675781 -42.675781 25.097656 -53.109375 16.355469 -53.109375 C 7.613281 -53.109375 1.035156 -42.675781 1.035156 -26.507812 C 1.035156 -10.246094 7.707031 0.941406 16.261719 0.941406 Z M 9.117188 -47 C 22.089844 -47 30.832031 -5.167969 23.21875 -5.167969 C 10.339844 -5.167969 1.503906 -47 9.117188 -47 Z M 9.117188 -47 "/></g></g></g><g fill="#f9f6f1" fill-opacity="1"><g transform="translate(537.714212, 1269.866823)"><g><path d="M 16.167969 -69.371094 C 12.878906 -70.402344 9.964844 -70.78125 6.578125 -70.5 C 1.503906 -62.882812 1.035156 -56.492188 1.035156 -52.167969 C 1.035156 -41.734375 4.605469 -31.394531 4.605469 -20.679688 C 4.605469 -13.910156 3.664062 -6.769531 1.035156 0 L 16.261719 0 C 3.101562 -24.0625 3.664062 -44.929688 16.167969 -69.371094 Z M 16.167969 -69.371094 "/></g></g></g><g fill="#f9f6f1" fill-opacity="1"><g transform="translate(554.915482, 1269.866823)"><g><path d="M 7.332031 -55.550781 C 17.578125 -55.550781 17.578125 -67.960938 7.332031 -67.960938 C -2.820312 -67.960938 -2.820312 -55.550781 7.332031 -55.550781 Z M 13.722656 0 C 13.722656 -15.320312 4.042969 -37.035156 13.722656 -52.167969 L 1.035156 -52.167969 C 1.035156 -33.273438 16.355469 -20.773438 1.035156 0 Z M 13.722656 0 "/></g></g></g><g fill="#f9f6f1" fill-opacity="1"><g transform="translate(569.860869, 1269.866823)"><g><path d="M 16.261719 0.941406 C 25.003906 0.941406 31.675781 -10.246094 31.675781 -26.507812 C 31.675781 -42.675781 25.097656 -53.109375 16.355469 -53.109375 C 7.613281 -53.109375 1.035156 -42.675781 1.035156 -26.507812 C 1.035156 -10.246094 7.707031 0.941406 16.261719 0.941406 Z M 9.117188 -47 C 22.089844 -47 30.832031 -5.167969 23.21875 -5.167969 C 10.339844 -5.167969 1.503906 -47 9.117188 -47 Z M 9.117188 -47 "/></g></g></g><g fill="#f9f6f1" fill-opacity="1"><g transform="translate(602.571491, 1269.866823)"><g/></g></g><g fill="#f9f6f1" fill-opacity="1"><g transform="translate(626.07049, 1269.866823)"><g><path d="M 16.261719 0.941406 C 25.003906 0.941406 31.675781 -10.246094 31.675781 -26.507812 C 31.675781 -42.675781 25.097656 -53.109375 16.355469 -53.109375 C 7.613281 -53.109375 1.035156 -42.675781 1.035156 -26.507812 C 1.035156 -10.246094 7.707031 0.941406 16.261719 0.941406 Z M 9.117188 -47 C 22.089844 -47 30.832031 -5.167969 23.21875 -5.167969 C 10.339844 -5.167969 1.503906 -47 9.117188 -47 Z M 9.117188 -47 "/></g></g></g><g fill="#f9f6f1" fill-opacity="1"><g transform="translate(658.781111, 1269.866823)"><g><path d="M 10.058594 -40.511719 C 9.304688 -38.820312 8.835938 -38.914062 8.554688 -40.605469 C 7.894531 -44.085938 7.425781 -47.75 7.238281 -51.132812 C 7.050781 -59.40625 8.929688 -64.480469 11.5625 -64.480469 C 13.910156 -64.480469 17.390625 -60.441406 20.304688 -54.613281 L 28.199219 -58.65625 C 25.097656 -67.394531 20.210938 -70.5 18.800781 -70.5 C 3.664062 -65.234375 1.035156 -59.125 1.035156 -52.167969 C 1.035156 -31.300781 16.355469 -20.773438 1.035156 0 L 19.363281 0 C 11.46875 -14.945312 -1.035156 -43.332031 26.132812 -44.273438 L 25.003906 -52.167969 C 17.765625 -52.167969 12.3125 -45.496094 10.058594 -40.511719 Z M 10.058594 -40.511719 "/></g></g></g><g fill="#f9f6f1" fill-opacity="1"><g transform="translate(684.724019, 1269.866823)"><g/></g></g><g fill="#f9f6f1" fill-opacity="1"><g transform="translate(708.22304, 1269.866823)"><g><path d="M 11.9375 -52.167969 L 1.691406 -52.167969 L 0.941406 -50.101562 L 3.761719 -50.101562 C 6.015625 -50.101562 5.265625 -48.785156 4.605469 -46.527344 C 2.632812 -40.136719 1.316406 -33.746094 1.316406 -26.507812 C 1.316406 -10.339844 7.894531 0.941406 16.730469 0.941406 C 21.808594 0.941406 24.535156 -3.855469 26.414062 -3.855469 C 30.832031 -3.855469 32.617188 0 42.394531 0 L 47.375 0 C 47.46875 -8.460938 39.386719 -31.960938 47.46875 -52.167969 L 30.171875 -52.167969 C 39.386719 -38.539062 46.246094 -8.929688 39.480469 -5.167969 C 35.8125 -5.167969 29.890625 -13.347656 26.132812 -26.789062 C 25.660156 -34.96875 26.320312 -43.804688 29.703125 -52.167969 L 12.40625 -52.167969 C 21.527344 -38.539062 28.480469 -8.929688 21.714844 -5.167969 C 18.046875 -5.167969 12.5 -13.066406 8.648438 -26.507812 C 5.453125 -37.882812 7.144531 -45.117188 11.9375 -52.167969 Z M 11.9375 -52.167969 "/></g></g></g><g fill="#f9f6f1" fill-opacity="1"><g transform="translate(756.630994, 1269.866823)"><g><path d="M 16.355469 -53.109375 C 7.332031 -53.109375 1.035156 -42.675781 1.035156 -26.601562 C 1.035156 -10.246094 7.613281 0.941406 16.636719 0.941406 C 24.628906 0.941406 30.265625 -8.367188 31.488281 -21.242188 L 26.226562 -21.242188 C 26.507812 -19.082031 26.695312 -16.636719 26.695312 -14.382812 C 26.695312 -9.398438 25.847656 -5.167969 23.78125 -5.167969 C 18.894531 -5.167969 15.132812 -10.996094 12.878906 -15.507812 C 6.484375 -28.011719 22.464844 -30.925781 31.488281 -30.925781 C 30.738281 -42.675781 25.191406 -53.109375 16.355469 -53.109375 Z M 9.398438 -24.15625 C 8.179688 -27.730469 7.050781 -33.179688 6.578125 -37.128906 C 5.921875 -44.179688 7.238281 -47 9.117188 -47 C 12.785156 -47 17.578125 -43.613281 21.996094 -32.523438 C 17.109375 -31.019531 12.03125 -28.105469 9.398438 -24.15625 Z M 9.398438 -24.15625 "/></g></g></g><g fill="#f9f6f1" fill-opacity="1"><g transform="translate(789.153635, 1269.866823)"><g><path d="M 2.820312 -1.035156 C 5.359375 -2.445312 8.273438 -2.066406 12.3125 0.09375 C 13.347656 0.65625 14.382812 0.941406 15.414062 0.941406 C 24.15625 0.941406 30.832031 -10.246094 30.832031 -26.507812 C 30.832031 -42.675781 26.039062 -52.921875 17.296875 -52.921875 C 14.570312 -52.921875 5.453125 -45.777344 7.050781 -51.699219 C 8.742188 -57.996094 13.535156 -64.199219 16.167969 -69.371094 C 12.878906 -70.402344 9.964844 -70.875 6.578125 -70.5 C 1.503906 -62.882812 1.035156 -56.585938 1.035156 -52.167969 C 1.035156 -41.734375 4.605469 -31.394531 4.605469 -20.679688 C 4.605469 -13.910156 3.664062 -6.769531 1.035156 0 Z M 8.273438 -47 C 21.148438 -47 29.984375 -5.167969 22.371094 -5.167969 C 9.492188 -5.167969 0.65625 -47 8.273438 -47 Z M 8.273438 -47 "/></g></g></g><g fill="#f9f6f1" fill-opacity="1"><g transform="translate(821.018287, 1269.866823)"><g/></g></g><g fill="#f9f6f1" fill-opacity="1"><g transform="translate(844.517308, 1269.866823)"><g><path d="M 23.21875 -2.539062 C 24.628906 -3.664062 24.910156 -3.382812 24.34375 -1.785156 C 24.15625 -1.222656 23.96875 -0.5625 23.78125 0 L 36.1875 0 C 23.03125 -24.0625 23.59375 -44.929688 36.09375 -69.371094 C 32.804688 -70.5 29.890625 -70.78125 26.414062 -70.5 C 21.429688 -62.882812 20.960938 -56.585938 20.960938 -52.167969 C 20.960938 -43.519531 19.457031 -53.109375 15.132812 -53.109375 C 12.40625 -53.109375 0.941406 -49.160156 0.941406 -26.507812 C 0.941406 -10.339844 7.613281 0.941406 16.261719 0.941406 C 19.269531 0.941406 20.867188 -0.46875 23.21875 -2.539062 Z M 9.117188 -47 C 21.996094 -47 30.738281 -5.167969 23.125 -5.167969 C 10.246094 -5.167969 1.503906 -47 9.117188 -47 Z M 9.117188 -47 "/></g></g></g><g fill="#f9f6f1" fill-opacity="1"><g transform="translate(881.645739, 1269.866823)"><g><path d="M 16.355469 -53.109375 C 7.332031 -53.109375 1.035156 -42.675781 1.035156 -26.601562 C 1.035156 -10.246094 7.613281 0.941406 16.636719 0.941406 C 24.628906 0.941406 30.265625 -8.367188 31.488281 -21.242188 L 26.226562 -21.242188 C 26.507812 -19.082031 26.695312 -16.636719 26.695312 -14.382812 C 26.695312 -9.398438 25.847656 -5.167969 23.78125 -5.167969 C 18.894531 -5.167969 15.132812 -10.996094 12.878906 -15.507812 C 6.484375 -28.011719 22.464844 -30.925781 31.488281 -30.925781 C 30.738281 -42.675781 25.191406 -53.109375 16.355469 -53.109375 Z M 9.398438 -24.15625 C 8.179688 -27.730469 7.050781 -33.179688 6.578125 -37.128906 C 5.921875 -44.179688 7.238281 -47 9.117188 -47 C 12.785156 -47 17.578125 -43.613281 21.996094 -32.523438 C 17.109375 -31.019531 12.03125 -28.105469 9.398438 -24.15625 Z M 9.398438 -24.15625 "/></g></g></g><g fill="#f9f6f1" fill-opacity="1"><g transform="translate(914.16838, 1269.866823)"><g><path d="M 1.785156 -52.167969 L 1.035156 -50.007812 L 3.761719 -50.007812 C 6.015625 -50.007812 5.359375 -48.785156 4.605469 -46.527344 C 2.632812 -40.136719 1.410156 -33.746094 1.410156 -26.507812 C 1.410156 -10.339844 13.253906 0 20.960938 0 L 31.582031 0 C 31.582031 -8.460938 23.59375 -31.960938 31.582031 -52.167969 L 14.382812 -52.167969 C 23.5 -38.539062 30.457031 -9.871094 23.6875 -5.167969 C 18.046875 -7.050781 12.59375 -13.066406 8.742188 -26.507812 C 5.546875 -37.882812 7.144531 -45.117188 11.9375 -52.167969 Z M 1.785156 -52.167969 "/></g></g></g><g fill="#f9f6f1" fill-opacity="1"><g transform="translate(946.785, 1269.866823)"><g><path d="M 16.355469 -53.109375 C 7.332031 -53.109375 1.035156 -42.675781 1.035156 -26.601562 C 1.035156 -10.246094 7.613281 0.941406 16.636719 0.941406 C 24.628906 0.941406 30.265625 -8.367188 31.488281 -21.242188 L 26.226562 -21.242188 C 26.507812 -19.082031 26.695312 -16.636719 26.695312 -14.382812 C 26.695312 -9.398438 25.847656 -5.167969 23.78125 -5.167969 C 18.894531 -5.167969 15.132812 -10.996094 12.878906 -15.507812 C 6.484375 -28.011719 22.464844 -30.925781 31.488281 -30.925781 C 30.738281 -42.675781 25.191406 -53.109375 16.355469 -53.109375 Z M 9.398438 -24.15625 C 8.179688 -27.730469 7.050781 -33.179688 6.578125 -37.128906 C 5.921875 -44.179688 7.238281 -47 9.117188 -47 C 12.785156 -47 17.578125 -43.613281 21.996094 -32.523438 C 17.109375 -31.019531 12.03125 -28.105469 9.398438 -24.15625 Z M 9.398438 -24.15625 "/></g></g></g><g fill="#f9f6f1" fill-opacity="1"><g transform="translate(979.307641, 1269.866823)"><g><path d="M 16.167969 -69.371094 C 12.878906 -70.402344 9.964844 -70.78125 6.578125 -70.5 C 1.503906 -62.882812 1.035156 -56.492188 1.035156 -52.167969 C 1.035156 -41.734375 4.605469 -31.394531 4.605469 -20.679688 C 4.605469 -13.910156 3.664062 -6.769531 1.035156 0 L 16.261719 0 C 3.101562 -24.0625 3.664062 -44.929688 16.167969 -69.371094 Z M 16.167969 -69.371094 "/></g></g></g><g fill="#f9f6f1" fill-opacity="1"><g transform="translate(996.508934, 1269.866823)"><g><path d="M 16.261719 0.941406 C 25.003906 0.941406 31.675781 -10.246094 31.675781 -26.507812 C 31.675781 -42.675781 25.097656 -53.109375 16.355469 -53.109375 C 7.613281 -53.109375 1.035156 -42.675781 1.035156 -26.507812 C 1.035156 -10.246094 7.707031 0.941406 16.261719 0.941406 Z M 9.117188 -47 C 22.089844 -47 30.832031 -5.167969 23.21875 -5.167969 C 10.339844 -5.167969 1.503906 -47 9.117188 -47 Z M 9.117188 -47 "/></g></g></g><g fill="#f9f6f1" fill-opacity="1"><g transform="translate(1029.219579, 1269.866823)"><g><path d="M 13.910156 -49.726562 C 12.59375 -48.597656 12.21875 -48.785156 12.785156 -50.476562 C 13.066406 -51.039062 13.253906 -51.605469 13.347656 -52.167969 L 1.035156 -52.167969 C 14.101562 -28.105469 13.535156 -7.238281 1.128906 17.203125 C 4.324219 18.234375 7.332031 18.613281 10.714844 18.234375 C 15.699219 10.621094 16.261719 4.324219 16.261719 0 C 16.261719 -8.742188 17.671875 0.941406 21.996094 0.941406 C 24.722656 0.941406 36.1875 -3.007812 36.1875 -25.753906 C 36.1875 -41.921875 29.515625 -53.109375 20.867188 -53.109375 C 17.859375 -53.109375 16.261719 -51.699219 13.910156 -49.726562 Z M 28.105469 -5.265625 C 15.132812 -5.265625 6.390625 -47.09375 14.003906 -47.09375 C 26.882812 -47.09375 35.71875 -5.265625 28.105469 -5.265625 Z M 28.105469 -5.265625 "/></g></g></g><g fill="#f9f6f1" fill-opacity="1"><g transform="translate(1066.441988, 1269.866823)"><g><path d="M 16.355469 -53.109375 C 7.332031 -53.109375 1.035156 -42.675781 1.035156 -26.601562 C 1.035156 -10.246094 7.613281 0.941406 16.636719 0.941406 C 24.628906 0.941406 30.265625 -8.367188 31.488281 -21.242188 L 26.226562 -21.242188 C 26.507812 -19.082031 26.695312 -16.636719 26.695312 -14.382812 C 26.695312 -9.398438 25.847656 -5.167969 23.78125 -5.167969 C 18.894531 -5.167969 15.132812 -10.996094 12.878906 -15.507812 C 6.484375 -28.011719 22.464844 -30.925781 31.488281 -30.925781 C 30.738281 -42.675781 25.191406 -53.109375 16.355469 -53.109375 Z M 9.398438 -24.15625 C 8.179688 -27.730469 7.050781 -33.179688 6.578125 -37.128906 C 5.921875 -44.179688 7.238281 -47 9.117188 -47 C 12.785156 -47 17.578125 -43.613281 21.996094 -32.523438 C 17.109375 -31.019531 12.03125 -28.105469 9.398438 -24.15625 Z M 9.398438 -24.15625 "/></g></g></g><g fill="#f9f6f1" fill-opacity="1"><g transform="translate(1098.964629, 1269.866823)"><g><path d="M 24.34375 -49.160156 C 21.808594 -51.886719 18.800781 -53.109375 15.886719 -53.109375 C 13.160156 -53.109375 7.707031 -45.777344 9.398438 -52.167969 L 1.035156 -52.167969 C 1.035156 -41.734375 4.605469 -31.394531 4.605469 -20.679688 C 4.605469 -13.910156 3.664062 -6.769531 1.035156 0 L 16.261719 0 C 10.433594 -10.714844 6.578125 -21.902344 6.578125 -32.992188 C 6.578125 -37.976562 7.332031 -47 8.648438 -47 C 14.664062 -47 18.234375 -39.667969 20.492188 -34.875 C 21.335938 -39.667969 22.839844 -45.023438 24.34375 -49.160156 Z M 24.34375 -49.160156 "/></g></g></g><g fill="#f9f6f1" fill-opacity="1"><g transform="translate(1124.337831, 1269.866823)"><g/></g></g><g fill="#f9f6f1" fill-opacity="1"><g transform="translate(301.936179, 1491.516825)"><g><path d="M 93.703125 -99.054688 C 93.703125 -117.652344 100.214844 -141.136719 113.003906 -162.761719 C 98.585938 -160.4375 87.425781 -159.273438 76.265625 -159.273438 C 65.105469 -159.273438 41.621094 -158.113281 2.324219 -162.761719 C 12.324219 -146.253906 21.625 -117.652344 21.625 -99.054688 L 23.71875 -99.054688 C 24.648438 -113.238281 28.832031 -143.929688 38.597656 -143.929688 C 52.316406 -143.929688 54.875 -114.398438 54.875 -105.332031 C 54.875 -70.683594 49.292969 -36.96875 30.691406 0 C 53.246094 -4.648438 67.429688 -4.648438 89.753906 0 C 69.289062 -48.828125 50.6875 -144.160156 64.175781 -144.160156 C 74.636719 -144.160156 91.378906 -117.652344 91.613281 -99.054688 Z M 93.703125 -99.054688 "/></g></g></g><g fill="#f9f6f1" fill-opacity="1"><g transform="translate(417.264983, 1491.516825)"><g><path d="M 2.324219 0 C 13.71875 -2.324219 22.320312 -3.488281 31.15625 -3.488281 C 39.992188 -3.488281 48.828125 -2.324219 59.988281 0 C 44.179688 -59.757812 38.132812 -98.585938 38.132812 -120.910156 C 38.132812 -136.71875 41.15625 -144.160156 45.804688 -144.160156 C 56.269531 -144.160156 79.289062 -106.957031 79.289062 -62.78125 C 79.289062 -42.316406 74.40625 -20.460938 61.386719 0 C 71.847656 -2.324219 79.984375 -3.488281 88.125 -3.488281 C 96.261719 -3.488281 104.402344 -2.324219 114.632812 0 C 96.03125 -36.96875 83.707031 -70.683594 83.707031 -105.332031 C 83.707031 -123.933594 87.425781 -142.765625 95.101562 -162.761719 C 80.917969 -160.4375 69.523438 -159.273438 58.363281 -159.273438 C 47.203125 -159.273438 36.039062 -160.4375 21.855469 -162.761719 C 29.53125 -142.765625 33.019531 -123.933594 33.019531 -105.332031 C 33.019531 -70.683594 20.925781 -36.96875 2.324219 0 Z M 2.324219 0 "/></g></g></g><g fill="#f9f6f1" fill-opacity="1"><g transform="translate(534.221417, 1491.516825)"><g><path d="M 117.886719 0 C 103.46875 -25.113281 95.101562 -53.945312 95.101562 -81.382812 C 95.101562 -108.820312 103.46875 -137.652344 117.886719 -162.761719 C 107.191406 -160.4375 98.585938 -159.273438 89.984375 -159.273438 C 81.613281 -159.273438 73.242188 -160.4375 62.316406 -162.761719 C 82.078125 -124.863281 87.660156 -93.703125 87.660156 -73.707031 C 87.660156 -57.664062 84.171875 -48.597656 81.382812 -48.597656 C 46.96875 -48.597656 75.570312 -165.089844 25.578125 -165.089844 C 18.601562 -165.089844 6.277344 -162.761719 2.324219 -162.761719 C 16.742188 -137.652344 25.113281 -108.820312 25.113281 -81.382812 C 25.113281 -53.945312 16.742188 -25.113281 2.324219 0 C 13.253906 -2.324219 21.625 -3.488281 29.996094 -3.488281 C 38.597656 -3.488281 47.203125 -2.324219 57.898438 0 C 38.132812 -38.132812 32.550781 -69.289062 32.550781 -89.285156 C 32.550781 -105.097656 36.039062 -114.167969 38.597656 -114.167969 C 72.777344 -114.167969 44.644531 2.324219 94.402344 2.324219 C 101.609375 2.324219 113.933594 0 117.886719 0 Z M 117.886719 0 "/></g></g></g><g fill="#f9f6f1" fill-opacity="1"><g transform="translate(654.433085, 1491.516825)"><g><path d="M 35.808594 -169.503906 L 68.824219 -188.570312 L 59.757812 -202.058594 L 34.414062 -171.367188 Z M 57.199219 -83.242188 C 57.199219 -82.542969 56.269531 -82.078125 54.640625 -82.078125 C 48.828125 -82.078125 34.179688 -88.589844 21.625 -88.589844 C 11.394531 -88.589844 2.558594 -83.9375 2.558594 -68.359375 C 2.558594 -44.179688 23.949219 -10.929688 50.457031 2.324219 C 61.617188 -3.488281 97.191406 -6.742188 100.679688 -78.589844 C 91.148438 -72.546875 77.660156 -68.128906 64.175781 -65.800781 C 72.082031 -53.246094 78.589844 -40.226562 78.589844 -31.855469 C 78.589844 -26.273438 76.730469 -22.785156 71.152344 -22.785156 C 53.480469 -22.785156 14.882812 -59.988281 14.882812 -76.035156 C 14.882812 -80.683594 17.902344 -82.3125 23.484375 -82.3125 C 34.414062 -82.3125 45.339844 -76.035156 56.035156 -76.035156 C 61.617188 -76.035156 64.640625 -77.660156 64.640625 -81.382812 C 64.640625 -94.636719 25.34375 -101.144531 25.34375 -126.722656 C 25.34375 -132.304688 27.203125 -144.160156 32.785156 -144.160156 C 41.621094 -144.160156 59.988281 -139.046875 75.800781 -99.054688 C 76.5 -123.003906 82.078125 -141.136719 94.867188 -162.761719 C 69.988281 -162.761719 68.824219 -164.855469 50.921875 -164.855469 C 31.390625 -164.855469 5.8125 -151.136719 5.8125 -126.722656 C 5.8125 -105.332031 57.199219 -89.054688 57.199219 -83.242188 Z M 57.199219 -83.242188 "/></g></g></g><g fill="#f9f6f1" fill-opacity="1"><g transform="translate(757.670987, 1491.516825)"><g/></g></g><g fill="#f9f6f1" fill-opacity="1"><g transform="translate(815.800432, 1491.516825)"><g><path d="M 36.273438 -80.683594 C 36.273438 -75.800781 40.226562 -75.335938 43.480469 -75.335938 C 55.570312 -75.335938 64.175781 -72.546875 64.175781 -26.507812 C 64.175781 -18.832031 63.011719 -10.230469 59.988281 0 C 69.289062 -2.324219 76.5 -3.488281 83.9375 -3.488281 C 91.378906 -3.488281 98.585938 -2.324219 107.886719 0 C 96.03125 -22.089844 90.449219 -81.847656 57.664062 -81.847656 C 51.851562 -81.847656 47.667969 -79.984375 43.25 -79.984375 C 41.621094 -79.984375 40.691406 -80.21875 40.691406 -81.382812 C 40.691406 -83.472656 43.714844 -86.03125 48.828125 -88.820312 C 77.894531 -104.867188 96.261719 -123.234375 99.984375 -162.761719 C 92.308594 -160.4375 86.265625 -159.273438 79.984375 -159.273438 C 73.941406 -159.273438 67.894531 -160.4375 59.988281 -162.761719 C 62.546875 -150.902344 63.710938 -140.90625 63.710938 -132.535156 C 63.710938 -106.957031 54.175781 -97.890625 48.363281 -94.167969 C 41.15625 -89.519531 36.273438 -86.265625 36.273438 -80.683594 Z M 2.558594 -162.761719 C 13.019531 -160.4375 21.160156 -159.273438 29.296875 -159.273438 C 37.433594 -159.273438 45.574219 -160.4375 55.804688 -162.761719 C 41.386719 -137.652344 33.019531 -108.820312 33.019531 -81.382812 C 33.019531 -53.945312 41.386719 -25.113281 55.804688 0 C 45.339844 -2.324219 37.203125 -3.488281 29.066406 -3.488281 C 20.925781 -3.488281 12.789062 -2.324219 2.324219 0 C 16.742188 -25.34375 25.113281 -54.175781 25.113281 -81.613281 C 25.113281 -109.050781 16.742188 -137.652344 2.558594 -162.761719 Z M 2.558594 -162.761719 "/></g></g></g><g fill="#f9f6f1" fill-opacity="1"><g transform="translate(926.013884, 1491.516825)"><g><path d="M 2.324219 0 C 13.71875 -2.324219 22.320312 -3.488281 31.15625 -3.488281 C 39.992188 -3.488281 48.828125 -2.324219 59.988281 0 C 44.179688 -59.757812 38.132812 -98.585938 38.132812 -120.910156 C 38.132812 -136.71875 41.15625 -144.160156 45.804688 -144.160156 C 56.269531 -144.160156 79.289062 -106.957031 79.289062 -62.78125 C 79.289062 -42.316406 74.40625 -20.460938 61.386719 0 C 71.847656 -2.324219 79.984375 -3.488281 88.125 -3.488281 C 96.261719 -3.488281 104.402344 -2.324219 114.632812 0 C 96.03125 -36.96875 83.707031 -70.683594 83.707031 -105.332031 C 83.707031 -123.933594 87.425781 -142.765625 95.101562 -162.761719 C 80.917969 -160.4375 69.523438 -159.273438 58.363281 -159.273438 C 47.203125 -159.273438 36.039062 -160.4375 21.855469 -162.761719 C 29.53125 -142.765625 33.019531 -123.933594 33.019531 -105.332031 C 33.019531 -70.683594 20.925781 -36.96875 2.324219 0 Z M 2.324219 0 "/></g></g></g><g fill="#f9f6f1" fill-opacity="1"><g transform="translate(1042.970292, 1491.516825)"><g><path d="M 2.558594 -162.761719 C 16.742188 -137.652344 25.113281 -109.050781 25.113281 -81.613281 C 25.113281 -54.175781 16.742188 -25.34375 2.324219 0 C 12.789062 -2.324219 20.925781 -3.488281 29.066406 -3.488281 C 37.203125 -3.488281 45.339844 -2.324219 55.804688 0 C 41.386719 -25.113281 33.019531 -53.945312 33.019531 -81.382812 C 33.019531 -108.820312 41.386719 -137.652344 55.804688 -162.761719 C 45.574219 -160.4375 37.433594 -159.273438 29.296875 -159.273438 C 21.160156 -159.273438 13.019531 -160.4375 2.558594 -162.761719 Z M 2.558594 -162.761719 "/></g></g></g><g fill="#f9f6f1" fill-opacity="1"><g transform="translate(1101.099737, 1491.516825)"><g><path d="M 2.324219 -81.847656 C 2.324219 -31.390625 21.625 2.324219 48.363281 2.324219 C 74.871094 2.324219 94.402344 -32.320312 94.402344 -82.777344 C 94.402344 -133 74.871094 -165.089844 48.363281 -165.089844 C 21.160156 -165.089844 2.324219 -132.070312 2.324219 -81.847656 Z M 70.683594 -18.367188 C 39.296875 -18.367188 19.300781 -89.753906 19.300781 -126.488281 C 19.300781 -139.277344 21.625 -147.882812 26.738281 -147.882812 C 48.363281 -147.882812 79.054688 -82.777344 79.054688 -36.738281 C 79.054688 -25.578125 76.5 -18.367188 70.683594 -18.367188 Z M 70.683594 -18.367188 "/></g></g></g></svg>