<svg xmlns="http://www.w3.org/2000/svg" xmlns:xlink="http://www.w3.org/1999/xlink" width="2000" zoomAndPan="magnify" viewBox="0 0 1500 1499.999933" height="2000" preserveAspectRatio="xMidYMid meet" version="1.0"><defs><g/></defs><g fill="#ffbd59" fill-opacity="1"><g transform="translate(72.246106, 448.308429)"><g><path d="M 184.894531 -43.214844 C 111.046875 -43.214844 64.003906 -211.152344 64.003906 -297.585938 C 64.003906 -327.671875 69.472656 -347.910156 81.507812 -347.910156 C 143.867188 -347.910156 204.589844 -170.671875 204.589844 -86.429688 C 204.589844 -62.910156 195.289062 -43.214844 184.894531 -43.214844 Z M 6.015625 0 C 55.25 -8.753906 83.148438 -7.660156 132.382812 5.46875 C 199.117188 -8.207031 240.691406 -75.488281 240.691406 -193.648438 C 240.691406 -312.902344 172.863281 -388.390625 106.125 -388.390625 C 67.285156 -375.261719 45.402344 -374.167969 6.5625 -382.921875 C 37.746094 -321.105469 53.609375 -258.199219 53.609375 -192.007812 C 53.609375 -127.457031 37.746094 -62.363281 6.015625 0 Z M 6.015625 0 "/></g></g></g><g fill="#ffbd59" fill-opacity="1"><g transform="translate(317.862069, 448.308429)"><g><path d="M 134.570312 -195.835938 C 134.570312 -194.195312 132.382812 -193.101562 128.550781 -193.101562 C 114.875 -193.101562 80.414062 -208.417969 50.875 -208.417969 C 26.804688 -208.417969 6.015625 -197.476562 6.015625 -160.828125 C 6.015625 -103.9375 56.34375 -25.710938 118.707031 5.46875 C 144.964844 -8.207031 228.660156 -15.863281 236.863281 -184.894531 C 214.4375 -170.671875 182.707031 -160.28125 150.980469 -154.808594 C 169.578125 -125.269531 184.894531 -94.636719 184.894531 -74.941406 C 184.894531 -61.8125 180.519531 -53.609375 167.390625 -53.609375 C 125.816406 -53.609375 35.011719 -141.132812 35.011719 -178.878906 C 35.011719 -189.820312 42.121094 -193.648438 55.25 -193.648438 C 80.960938 -193.648438 106.671875 -178.878906 131.835938 -178.878906 C 144.964844 -178.878906 152.074219 -182.707031 152.074219 -191.460938 C 152.074219 -222.640625 59.625 -237.957031 59.625 -298.132812 C 59.625 -311.261719 64.003906 -339.160156 77.132812 -339.160156 C 97.917969 -339.160156 141.132812 -327.125 178.332031 -233.035156 C 179.972656 -289.378906 193.101562 -332.046875 223.1875 -382.921875 C 164.65625 -382.921875 161.921875 -387.84375 119.800781 -387.84375 C 73.847656 -387.84375 13.675781 -355.570312 13.675781 -298.132812 C 13.675781 -247.804688 134.570312 -209.511719 134.570312 -195.835938 Z M 134.570312 -195.835938 "/></g></g></g><g fill="#ffbd59" fill-opacity="1"><g transform="translate(559.648851, 448.308429)"><g><path d="M 56.34375 -160.828125 C 53.609375 -133.476562 44.308594 -77.132812 5.46875 0 C 37.199219 3.828125 88.617188 5.46875 118.707031 5.46875 C 186.539062 5.46875 224.28125 -47.042969 224.28125 -97.917969 C 224.28125 -159.734375 164.109375 -193.101562 115.421875 -225.375 C 90.808594 -241.789062 54.15625 -266.402344 53.609375 -300.320312 C 53.609375 -312.355469 58.53125 -339.160156 72.753906 -339.160156 C 95.183594 -339.160156 126.910156 -319.464844 193.101562 -233.035156 C 194.195312 -277.34375 210.605469 -338.613281 228.113281 -382.921875 C 175.050781 -382.921875 175.050781 -387.84375 118.707031 -387.84375 C 69.472656 -387.84375 5.46875 -355.570312 5.46875 -298.132812 C 5.46875 -254.914062 106.125 -229.753906 154.261719 -177.785156 C 173.957031 -156.449219 185.441406 -126.363281 185.441406 -96.824219 C 185.441406 -72.207031 176.691406 -53.609375 163.5625 -53.609375 C 125.269531 -53.609375 61.265625 -98.464844 56.34375 -160.828125 Z M 56.34375 -160.828125 "/></g></g></g><g fill="#ffbd59" fill-opacity="1"><g transform="translate(792.136143, 448.308429)"><g><path d="M 6.015625 -382.921875 C 39.386719 -323.839844 59.078125 -256.558594 59.078125 -192.007812 C 59.078125 -127.457031 39.386719 -59.625 5.46875 0 C 30.085938 -5.46875 49.234375 -8.207031 68.378906 -8.207031 C 87.523438 -8.207031 106.671875 -5.46875 131.289062 0 C 97.371094 -59.078125 77.679688 -126.910156 77.679688 -191.460938 C 77.679688 -256.011719 97.371094 -323.839844 131.289062 -382.921875 C 107.21875 -377.449219 88.070312 -374.714844 68.925781 -374.714844 C 49.78125 -374.714844 30.632812 -377.449219 6.015625 -382.921875 Z M 6.015625 -382.921875 "/></g></g></g><g fill="#ffbd59" fill-opacity="1"><g transform="translate(927.799241, 448.308429)"><g><path d="M 148.246094 -246.710938 L 208.417969 -272.96875 C 204.042969 -312.902344 179.425781 -388.390625 115.421875 -388.390625 C 50.875 -388.390625 5.46875 -310.714844 5.46875 -192.554688 C 5.46875 -73.300781 50.875 5.46875 115.421875 5.46875 C 195.835938 5.46875 212.246094 -122.535156 212.246094 -204.042969 C 196.382812 -194.742188 177.785156 -190.367188 154.261719 -190.367188 C 146.058594 -190.367188 136.757812 -190.914062 126.363281 -192.554688 C 144.414062 -154.261719 181.066406 -89.164062 181.066406 -60.71875 C 181.066406 -50.875 175.050781 -43.214844 166.296875 -43.214844 C 91.902344 -43.214844 45.402344 -211.152344 45.402344 -297.585938 C 45.402344 -327.671875 50.875 -347.910156 62.910156 -347.910156 C 101.199219 -347.910156 134.023438 -282.265625 148.246094 -246.710938 Z M 148.246094 -246.710938 "/></g></g></g><g fill="#ffbd59" fill-opacity="1"><g transform="translate(1144.96958, 448.308429)"><g><path d="M 277.34375 0 C 243.429688 -59.078125 223.734375 -126.910156 223.734375 -191.460938 C 223.734375 -256.011719 243.429688 -323.839844 277.34375 -382.921875 C 252.179688 -377.449219 231.941406 -374.714844 211.699219 -374.714844 C 192.007812 -374.714844 172.3125 -377.449219 146.605469 -382.921875 C 193.101562 -293.753906 206.230469 -220.453125 206.230469 -173.410156 C 206.230469 -135.664062 198.023438 -114.328125 191.460938 -114.328125 C 110.5 -114.328125 177.785156 -388.390625 60.171875 -388.390625 C 43.761719 -388.390625 14.769531 -382.921875 5.46875 -382.921875 C 39.386719 -323.839844 59.078125 -256.011719 59.078125 -191.460938 C 59.078125 -126.910156 39.386719 -59.078125 5.46875 0 C 31.179688 -5.46875 50.875 -8.207031 70.566406 -8.207031 C 90.808594 -8.207031 111.046875 -5.46875 136.210938 0 C 89.714844 -89.714844 76.585938 -163.015625 76.585938 -210.058594 C 76.585938 -247.257812 84.789062 -268.589844 90.808594 -268.589844 C 171.21875 -268.589844 105.03125 5.46875 222.09375 5.46875 C 239.050781 5.46875 268.042969 0 277.34375 0 Z M 277.34375 0 "/></g></g></g><g fill="#ffbd59" fill-opacity="1"><g transform="translate(-0.514958, 895.516515)"><g><path d="M 148.246094 -247.257812 L 208.417969 -272.96875 C 204.042969 -312.902344 179.425781 -388.390625 115.421875 -388.390625 C 51.421875 -388.390625 5.46875 -310.714844 5.46875 -192.554688 C 5.46875 -73.300781 51.421875 5.46875 115.421875 5.46875 C 196.382812 5.46875 212.792969 -122.535156 212.792969 -204.042969 L 153.714844 -188.179688 C 160.828125 -168.484375 185.441406 -106.125 185.441406 -71.660156 C 185.441406 -55.25 180.519531 -43.214844 166.296875 -43.214844 C 92.449219 -43.214844 45.402344 -211.152344 45.402344 -297.585938 C 45.402344 -327.671875 50.875 -347.910156 62.910156 -347.910156 C 100.652344 -347.910156 134.023438 -282.8125 148.246094 -247.257812 Z M 148.246094 -247.257812 "/></g></g></g><g fill="#ffbd59" fill-opacity="1"><g transform="translate(216.655427, 895.516515)"><g><path d="M 129.097656 -178.878906 C 147.152344 -178.878906 153.167969 -147.699219 153.167969 -107.765625 C 153.167969 -66.191406 147.152344 -18.597656 143.320312 0 C 161.921875 -5.46875 179.972656 -8.207031 196.929688 -8.207031 C 214.4375 -8.207031 231.394531 -5.46875 249.992188 0 C 236.316406 -59.078125 203.496094 -194.742188 143.867188 -194.742188 C 127.457031 -194.742188 106.671875 -184.347656 98.464844 -184.347656 C 96.277344 -184.347656 94.636719 -184.894531 94.636719 -187.085938 C 94.636719 -192.007812 101.746094 -198.023438 113.78125 -204.589844 C 152.074219 -226.46875 229.753906 -248.898438 229.753906 -298.132812 C 229.753906 -368.699219 138.945312 -388.390625 67.832031 -388.390625 C 44.308594 -388.390625 21.335938 -386.203125 6.015625 -382.921875 C 39.386719 -323.839844 59.078125 -256.011719 59.078125 -191.460938 C 59.078125 -126.910156 39.386719 -58.53125 5.46875 0 C 30.085938 -5.46875 49.234375 -8.207031 68.378906 -8.207031 C 87.523438 -8.207031 110.5 -5.46875 135.117188 0 C 67.832031 -133.476562 46.496094 -347.910156 80.960938 -347.910156 C 99.558594 -347.910156 121.988281 -329.859375 141.132812 -297.039062 C 183.800781 -224.28125 84.789062 -227.015625 84.789062 -186.539062 C 84.789062 -176.691406 93.542969 -173.410156 100.652344 -173.410156 C 109.953125 -173.410156 121.988281 -178.878906 129.097656 -178.878906 Z M 129.097656 -178.878906 "/></g></g></g><g fill="#ffbd59" fill-opacity="1"><g transform="translate(471.570896, 895.516515)"><g><path d="M 134.570312 -195.835938 C 134.570312 -194.195312 132.382812 -193.101562 128.550781 -193.101562 C 114.875 -193.101562 80.414062 -208.417969 50.875 -208.417969 C 26.804688 -208.417969 6.015625 -197.476562 6.015625 -160.828125 C 6.015625 -103.9375 56.34375 -25.710938 118.707031 5.46875 C 144.964844 -8.207031 228.660156 -15.863281 236.863281 -184.894531 C 214.4375 -170.671875 182.707031 -160.28125 150.980469 -154.808594 C 169.578125 -125.269531 184.894531 -94.636719 184.894531 -74.941406 C 184.894531 -61.8125 180.519531 -53.609375 167.390625 -53.609375 C 125.816406 -53.609375 35.011719 -141.132812 35.011719 -178.878906 C 35.011719 -189.820312 42.121094 -193.648438 55.25 -193.648438 C 80.960938 -193.648438 106.671875 -178.878906 131.835938 -178.878906 C 144.964844 -178.878906 152.074219 -182.707031 152.074219 -191.460938 C 152.074219 -222.640625 59.625 -237.957031 59.625 -298.132812 C 59.625 -311.261719 64.003906 -339.160156 77.132812 -339.160156 C 97.917969 -339.160156 141.132812 -327.125 178.332031 -233.035156 C 179.972656 -289.378906 193.101562 -332.046875 223.1875 -382.921875 C 164.65625 -382.921875 161.921875 -387.84375 119.800781 -387.84375 C 73.847656 -387.84375 13.675781 -355.570312 13.675781 -298.132812 C 13.675781 -247.804688 134.570312 -209.511719 134.570312 -195.835938 Z M 134.570312 -195.835938 "/></g></g></g><g fill="#ffbd59" fill-opacity="1"><g transform="translate(713.357692, 895.516515)"><g><path d="M 5.46875 0 C 32.273438 -5.46875 52.515625 -8.207031 73.300781 -8.207031 C 94.089844 -8.207031 114.875 -5.46875 141.132812 0 C 103.9375 -140.585938 89.714844 -231.941406 89.714844 -284.457031 C 89.714844 -321.652344 96.824219 -339.160156 107.765625 -339.160156 C 132.382812 -339.160156 186.539062 -251.632812 186.539062 -147.699219 C 186.539062 -99.558594 175.050781 -48.136719 144.414062 0 C 169.03125 -5.46875 188.179688 -8.207031 207.324219 -8.207031 C 226.46875 -8.207031 245.617188 -5.46875 269.6875 0 C 225.921875 -86.976562 196.929688 -166.296875 196.929688 -247.804688 C 196.929688 -291.566406 205.683594 -335.875 223.734375 -382.921875 C 190.367188 -377.449219 163.5625 -374.714844 137.304688 -374.714844 C 111.046875 -374.714844 84.789062 -377.449219 51.421875 -382.921875 C 69.472656 -335.875 77.679688 -291.566406 77.679688 -247.804688 C 77.679688 -166.296875 49.234375 -86.976562 5.46875 0 Z M 5.46875 0 "/></g></g></g><g fill="#ffbd59" fill-opacity="1"><g transform="translate(987.419064, 895.516515)"><g><path d="M 220.453125 -233.035156 C 220.453125 -276.796875 235.769531 -332.046875 265.855469 -382.921875 C 231.941406 -377.449219 205.683594 -374.714844 179.425781 -374.714844 C 153.167969 -374.714844 97.917969 -371.980469 5.46875 -382.921875 C 28.992188 -344.082031 50.875 -276.796875 50.875 -233.035156 L 55.796875 -233.035156 C 57.984375 -266.402344 67.832031 -338.613281 90.808594 -338.613281 C 123.082031 -338.613281 129.097656 -269.140625 129.097656 -247.804688 C 129.097656 -166.296875 115.96875 -86.976562 72.207031 0 C 125.269531 -10.941406 158.636719 -10.941406 211.152344 0 C 163.015625 -114.875 119.253906 -339.160156 150.980469 -339.160156 C 175.597656 -339.160156 214.984375 -276.796875 215.53125 -233.035156 Z M 220.453125 -233.035156 "/></g></g></g><g fill="#ffbd59" fill-opacity="1"><g transform="translate(1257.651314, 895.516515)"><g><path d="M 134.570312 -195.835938 C 134.570312 -194.195312 132.382812 -193.101562 128.550781 -193.101562 C 114.875 -193.101562 80.414062 -208.417969 50.875 -208.417969 C 26.804688 -208.417969 6.015625 -197.476562 6.015625 -160.828125 C 6.015625 -103.9375 56.34375 -25.710938 118.707031 5.46875 C 144.964844 -8.207031 228.660156 -15.863281 236.863281 -184.894531 C 214.4375 -170.671875 182.707031 -160.28125 150.980469 -154.808594 C 169.578125 -125.269531 184.894531 -94.636719 184.894531 -74.941406 C 184.894531 -61.8125 180.519531 -53.609375 167.390625 -53.609375 C 125.816406 -53.609375 35.011719 -141.132812 35.011719 -178.878906 C 35.011719 -189.820312 42.121094 -193.648438 55.25 -193.648438 C 80.960938 -193.648438 106.671875 -178.878906 131.835938 -178.878906 C 144.964844 -178.878906 152.074219 -182.707031 152.074219 -191.460938 C 152.074219 -222.640625 59.625 -237.957031 59.625 -298.132812 C 59.625 -311.261719 64.003906 -339.160156 77.132812 -339.160156 C 97.917969 -339.160156 141.132812 -327.125 178.332031 -233.035156 C 179.972656 -289.378906 193.101562 -332.046875 223.1875 -382.921875 C 164.65625 -382.921875 161.921875 -387.84375 119.800781 -387.84375 C 73.847656 -387.84375 13.675781 -355.570312 13.675781 -298.132812 C 13.675781 -247.804688 134.570312 -209.511719 134.570312 -195.835938 Z M 134.570312 -195.835938 "/></g></g></g><g fill="#ffbd59" fill-opacity="1"><g transform="translate(236.327112, 1342.724602)"><g><path d="M 148.246094 -246.710938 L 208.417969 -272.96875 C 204.042969 -312.902344 179.425781 -388.390625 115.421875 -388.390625 C 50.875 -388.390625 5.46875 -310.714844 5.46875 -192.554688 C 5.46875 -73.300781 50.875 5.46875 115.421875 5.46875 C 195.835938 5.46875 212.246094 -122.535156 212.246094 -204.042969 C 196.382812 -194.742188 177.785156 -190.367188 154.261719 -190.367188 C 146.058594 -190.367188 136.757812 -190.914062 126.363281 -192.554688 C 144.414062 -154.261719 181.066406 -89.164062 181.066406 -60.71875 C 181.066406 -50.875 175.050781 -43.214844 166.296875 -43.214844 C 91.902344 -43.214844 45.402344 -211.152344 45.402344 -297.585938 C 45.402344 -327.671875 50.875 -347.910156 62.910156 -347.910156 C 101.199219 -347.910156 134.023438 -282.265625 148.246094 -246.710938 Z M 148.246094 -246.710938 "/></g></g></g><g fill="#ffbd59" fill-opacity="1"><g transform="translate(453.497496, 1342.724602)"><g><path d="M 129.097656 -178.878906 C 147.152344 -178.878906 153.167969 -147.699219 153.167969 -107.765625 C 153.167969 -66.191406 147.152344 -18.597656 143.320312 0 C 161.921875 -5.46875 179.972656 -8.207031 196.929688 -8.207031 C 214.4375 -8.207031 231.394531 -5.46875 249.992188 0 C 236.316406 -59.078125 203.496094 -194.742188 143.867188 -194.742188 C 127.457031 -194.742188 106.671875 -184.347656 98.464844 -184.347656 C 96.277344 -184.347656 94.636719 -184.894531 94.636719 -187.085938 C 94.636719 -192.007812 101.746094 -198.023438 113.78125 -204.589844 C 152.074219 -226.46875 229.753906 -248.898438 229.753906 -298.132812 C 229.753906 -368.699219 138.945312 -388.390625 67.832031 -388.390625 C 44.308594 -388.390625 21.335938 -386.203125 6.015625 -382.921875 C 39.386719 -323.839844 59.078125 -256.011719 59.078125 -191.460938 C 59.078125 -126.910156 39.386719 -58.53125 5.46875 0 C 30.085938 -5.46875 49.234375 -8.207031 68.378906 -8.207031 C 87.523438 -8.207031 110.5 -5.46875 135.117188 0 C 67.832031 -133.476562 46.496094 -347.910156 80.960938 -347.910156 C 99.558594 -347.910156 121.988281 -329.859375 141.132812 -297.039062 C 183.800781 -224.28125 84.789062 -227.015625 84.789062 -186.539062 C 84.789062 -176.691406 93.542969 -173.410156 100.652344 -173.410156 C 109.953125 -173.410156 121.988281 -178.878906 129.097656 -178.878906 Z M 129.097656 -178.878906 "/></g></g></g><g fill="#ffbd59" fill-opacity="1"><g transform="translate(708.412965, 1342.724602)"><g><path d="M 5.46875 -192.554688 C 5.46875 -73.847656 50.875 5.46875 113.78125 5.46875 C 176.144531 5.46875 222.09375 -76.039062 222.09375 -194.742188 C 222.09375 -312.902344 176.144531 -388.390625 113.78125 -388.390625 C 49.78125 -388.390625 5.46875 -310.714844 5.46875 -192.554688 Z M 166.296875 -43.214844 C 92.449219 -43.214844 45.402344 -211.152344 45.402344 -297.585938 C 45.402344 -327.671875 50.875 -347.910156 62.910156 -347.910156 C 113.78125 -347.910156 185.988281 -194.742188 185.988281 -86.429688 C 185.988281 -60.171875 179.972656 -43.214844 166.296875 -43.214844 Z M 166.296875 -43.214844 "/></g></g></g><g fill="#ffbd59" fill-opacity="1"><g transform="translate(935.429936, 1342.724602)"><g><path d="M 164.109375 -251.085938 C 172.863281 -251.085938 185.441406 -183.800781 185.441406 -71.113281 C 185.441406 -28.445312 206.777344 6.015625 245.070312 6.015625 C 260.933594 6.015625 287.738281 0.546875 296.488281 0.546875 C 224.828125 -137.851562 258.199219 -258.199219 322.746094 -382.375 C 296.488281 -376.902344 276.25 -374.167969 256.011719 -374.167969 C 235.769531 -374.167969 215.53125 -376.902344 189.273438 -382.375 C 206.777344 -349.003906 276.25 -89.714844 213.890625 -89.714844 C 195.289062 -89.714844 198.023438 -267.496094 164.109375 -267.496094 C 129.644531 -267.496094 133.476562 -89.714844 114.875 -89.714844 C 52.515625 -89.714844 121.441406 -349.003906 138.945312 -382.375 C 112.6875 -376.902344 91.902344 -374.167969 71.660156 -374.167969 C 51.421875 -374.167969 31.179688 -376.902344 5.46875 -382.375 C 70.019531 -258.199219 103.386719 -137.851562 31.179688 0.546875 C 40.480469 0.546875 67.285156 6.015625 82.601562 6.015625 C 120.894531 6.015625 142.773438 -28.445312 142.773438 -71.113281 C 142.773438 -183.800781 155.355469 -251.085938 164.109375 -251.085938 Z M 164.109375 -251.085938 "/></g></g></g></svg>