<svg xmlns="http://www.w3.org/2000/svg" xmlns:xlink="http://www.w3.org/1999/xlink" width="2000" zoomAndPan="magnify" viewBox="0 0 1500 1499.999933" height="2000" preserveAspectRatio="xMidYMid meet" version="1.0"><defs><g/></defs><g fill="#ffbd59" fill-opacity="1"><g transform="translate(72.217199, 473.339209)"><g><path d="M 184.898438 -43.214844 C 111.050781 -43.214844 64.003906 -211.15625 64.003906 -297.589844 C 64.003906 -327.675781 69.472656 -347.917969 81.507812 -347.917969 C 143.871094 -347.917969 204.59375 -170.675781 204.59375 -86.433594 C 204.59375 -62.910156 195.292969 -43.214844 184.898438 -43.214844 Z M 6.015625 0 C 55.25 -8.753906 83.148438 -7.660156 132.382812 5.46875 C 199.121094 -8.207031 240.699219 -75.492188 240.699219 -193.652344 C 240.699219 -312.90625 172.863281 -388.398438 106.125 -388.398438 C 67.285156 -375.269531 45.40625 -374.175781 6.566406 -382.929688 C 37.746094 -321.113281 53.609375 -258.203125 53.609375 -192.011719 C 53.609375 -127.460938 37.746094 -62.363281 6.015625 0 Z M 6.015625 0 "/></g></g></g><g fill="#ffbd59" fill-opacity="1"><g transform="translate(317.837865, 473.339209)"><g><path d="M 134.570312 -195.839844 C 134.570312 -194.199219 132.382812 -193.105469 128.554688 -193.105469 C 114.878906 -193.105469 80.414062 -208.421875 50.875 -208.421875 C 26.804688 -208.421875 6.015625 -197.480469 6.015625 -160.828125 C 6.015625 -103.9375 56.34375 -25.710938 118.707031 5.46875 C 144.964844 -8.207031 228.664062 -15.863281 236.867188 -184.898438 C 214.441406 -170.675781 182.710938 -160.28125 150.984375 -154.8125 C 169.582031 -125.273438 184.898438 -94.636719 184.898438 -74.945312 C 184.898438 -61.816406 180.523438 -53.609375 167.394531 -53.609375 C 125.820312 -53.609375 35.011719 -141.136719 35.011719 -178.882812 C 35.011719 -189.824219 42.121094 -193.652344 55.25 -193.652344 C 80.960938 -193.652344 106.671875 -178.882812 131.835938 -178.882812 C 144.964844 -178.882812 152.078125 -182.710938 152.078125 -191.464844 C 152.078125 -222.644531 59.628906 -237.960938 59.628906 -298.136719 C 59.628906 -311.265625 64.003906 -339.164062 77.132812 -339.164062 C 97.921875 -339.164062 141.136719 -327.128906 178.335938 -233.039062 C 179.976562 -289.382812 193.105469 -332.054688 223.191406 -382.929688 C 164.660156 -382.929688 161.925781 -387.851562 119.800781 -387.851562 C 73.851562 -387.851562 13.675781 -355.578125 13.675781 -298.136719 C 13.675781 -247.808594 134.570312 -209.515625 134.570312 -195.839844 Z M 134.570312 -195.839844 "/></g></g></g><g fill="#ffbd59" fill-opacity="1"><g transform="translate(559.629265, 473.339209)"><g><path d="M 56.34375 -160.828125 C 53.609375 -133.476562 44.308594 -77.132812 5.46875 0 C 37.199219 3.828125 88.621094 5.46875 118.707031 5.46875 C 186.539062 5.46875 224.285156 -47.046875 224.285156 -97.921875 C 224.285156 -159.734375 164.113281 -193.105469 115.425781 -225.378906 C 90.808594 -241.792969 54.15625 -266.410156 53.609375 -300.324219 C 53.609375 -312.359375 58.535156 -339.164062 72.757812 -339.164062 C 95.183594 -339.164062 126.914062 -319.472656 193.105469 -233.039062 C 194.199219 -277.347656 210.609375 -338.617188 228.117188 -382.929688 C 175.054688 -382.929688 175.054688 -387.851562 118.707031 -387.851562 C 69.472656 -387.851562 5.46875 -355.578125 5.46875 -298.136719 C 5.46875 -254.921875 106.125 -229.757812 154.265625 -177.789062 C 173.957031 -156.453125 185.445312 -126.367188 185.445312 -96.824219 C 185.445312 -72.210938 176.695312 -53.609375 163.566406 -53.609375 C 125.273438 -53.609375 61.269531 -98.46875 56.34375 -160.828125 Z M 56.34375 -160.828125 "/></g></g></g><g fill="#ffbd59" fill-opacity="1"><g transform="translate(792.120999, 473.339209)"><g><path d="M 6.015625 -382.929688 C 39.386719 -323.847656 59.082031 -256.5625 59.082031 -192.011719 C 59.082031 -127.460938 39.386719 -59.628906 5.46875 0 C 30.085938 -5.46875 49.234375 -8.207031 68.378906 -8.207031 C 87.527344 -8.207031 106.671875 -5.46875 131.289062 0 C 97.375 -59.082031 77.679688 -126.914062 77.679688 -191.464844 C 77.679688 -256.015625 97.375 -323.847656 131.289062 -382.929688 C 107.21875 -377.457031 88.074219 -374.722656 68.925781 -374.722656 C 49.78125 -374.722656 30.632812 -377.457031 6.015625 -382.929688 Z M 6.015625 -382.929688 "/></g></g></g><g fill="#ffbd59" fill-opacity="1"><g transform="translate(927.786735, 473.339209)"><g><path d="M 148.246094 -246.714844 L 208.421875 -272.972656 C 204.046875 -312.90625 179.429688 -388.398438 115.425781 -388.398438 C 50.875 -388.398438 5.46875 -310.71875 5.46875 -192.558594 C 5.46875 -73.304688 50.875 5.46875 115.425781 5.46875 C 195.839844 5.46875 212.25 -122.535156 212.25 -204.046875 C 196.386719 -194.746094 177.789062 -190.371094 154.265625 -190.371094 C 146.058594 -190.371094 136.761719 -190.917969 126.367188 -192.558594 C 144.417969 -154.265625 181.070312 -89.167969 181.070312 -60.722656 C 181.070312 -50.875 175.054688 -43.214844 166.300781 -43.214844 C 91.902344 -43.214844 45.40625 -211.15625 45.40625 -297.589844 C 45.40625 -327.675781 50.875 -347.917969 62.910156 -347.917969 C 101.203125 -347.917969 134.023438 -282.273438 148.246094 -246.714844 Z M 148.246094 -246.714844 "/></g></g></g><g fill="#ffbd59" fill-opacity="1"><g transform="translate(1144.961205, 473.339209)"><g><path d="M 277.347656 0 C 243.433594 -59.082031 223.738281 -126.914062 223.738281 -191.464844 C 223.738281 -256.015625 243.433594 -323.847656 277.347656 -382.929688 C 252.1875 -377.457031 231.945312 -374.722656 211.703125 -374.722656 C 192.011719 -374.722656 172.316406 -377.457031 146.605469 -382.929688 C 193.105469 -293.761719 206.234375 -220.457031 206.234375 -173.410156 C 206.234375 -135.664062 198.027344 -114.332031 191.464844 -114.332031 C 110.503906 -114.332031 177.789062 -388.398438 60.175781 -388.398438 C 43.761719 -388.398438 14.769531 -382.929688 5.46875 -382.929688 C 39.386719 -323.847656 59.082031 -256.015625 59.082031 -191.464844 C 59.082031 -126.914062 39.386719 -59.082031 5.46875 0 C 31.179688 -5.46875 50.875 -8.207031 70.566406 -8.207031 C 90.808594 -8.207031 111.050781 -5.46875 136.214844 0 C 89.714844 -89.714844 76.585938 -163.019531 76.585938 -210.0625 C 76.585938 -247.261719 84.792969 -268.597656 90.808594 -268.597656 C 171.222656 -268.597656 105.03125 5.46875 222.097656 5.46875 C 239.054688 5.46875 268.050781 0 277.347656 0 Z M 277.347656 0 "/></g></g></g><g fill="#ffbd59" fill-opacity="1"><g transform="translate(-0.533731, 921.266079)"><g><path d="M 148.246094 -247.261719 L 208.421875 -272.972656 C 204.046875 -312.90625 179.429688 -388.398438 115.425781 -388.398438 C 51.421875 -388.398438 5.46875 -310.71875 5.46875 -192.558594 C 5.46875 -73.304688 51.421875 5.46875 115.425781 5.46875 C 196.386719 5.46875 212.796875 -122.535156 212.796875 -204.046875 L 153.71875 -188.183594 C 160.828125 -168.488281 185.445312 -106.125 185.445312 -71.664062 C 185.445312 -55.25 180.523438 -43.214844 166.300781 -43.214844 C 92.449219 -43.214844 45.40625 -211.15625 45.40625 -297.589844 C 45.40625 -327.675781 50.875 -347.917969 62.910156 -347.917969 C 100.65625 -347.917969 134.023438 -282.820312 148.246094 -247.261719 Z M 148.246094 -247.261719 "/></g></g></g><g fill="#ffbd59" fill-opacity="1"><g transform="translate(216.64079, 921.266079)"><g><path d="M 129.101562 -178.882812 C 147.152344 -178.882812 153.171875 -147.699219 153.171875 -107.765625 C 153.171875 -66.191406 147.152344 -18.597656 143.324219 0 C 161.925781 -5.46875 179.976562 -8.207031 196.933594 -8.207031 C 214.441406 -8.207031 231.398438 -5.46875 249.996094 0 C 236.320312 -59.082031 203.5 -194.746094 143.871094 -194.746094 C 127.460938 -194.746094 106.671875 -184.351562 98.46875 -184.351562 C 96.277344 -184.351562 94.636719 -184.898438 94.636719 -187.085938 C 94.636719 -192.011719 101.75 -198.027344 113.785156 -204.59375 C 152.078125 -226.476562 229.757812 -248.902344 229.757812 -298.136719 C 229.757812 -368.707031 138.949219 -388.398438 67.832031 -388.398438 C 44.308594 -388.398438 21.335938 -386.210938 6.015625 -382.929688 C 39.386719 -323.847656 59.082031 -256.015625 59.082031 -191.464844 C 59.082031 -126.914062 39.386719 -58.535156 5.46875 0 C 30.085938 -5.46875 49.234375 -8.207031 68.378906 -8.207031 C 87.527344 -8.207031 110.503906 -5.46875 135.117188 0 C 67.832031 -133.476562 46.5 -347.917969 80.960938 -347.917969 C 99.5625 -347.917969 121.988281 -329.867188 141.136719 -297.042969 C 183.804688 -224.285156 84.792969 -227.023438 84.792969 -186.539062 C 84.792969 -176.695312 93.542969 -173.410156 100.65625 -173.410156 C 109.957031 -173.410156 121.988281 -178.882812 129.101562 -178.882812 Z M 129.101562 -178.882812 "/></g></g></g><g fill="#ffbd59" fill-opacity="1"><g transform="translate(471.561114, 921.266079)"><g><path d="M 134.570312 -195.839844 C 134.570312 -194.199219 132.382812 -193.105469 128.554688 -193.105469 C 114.878906 -193.105469 80.414062 -208.421875 50.875 -208.421875 C 26.804688 -208.421875 6.015625 -197.480469 6.015625 -160.828125 C 6.015625 -103.9375 56.34375 -25.710938 118.707031 5.46875 C 144.964844 -8.207031 228.664062 -15.863281 236.867188 -184.898438 C 214.441406 -170.675781 182.710938 -160.28125 150.984375 -154.8125 C 169.582031 -125.273438 184.898438 -94.636719 184.898438 -74.945312 C 184.898438 -61.816406 180.523438 -53.609375 167.394531 -53.609375 C 125.820312 -53.609375 35.011719 -141.136719 35.011719 -178.882812 C 35.011719 -189.824219 42.121094 -193.652344 55.25 -193.652344 C 80.960938 -193.652344 106.671875 -178.882812 131.835938 -178.882812 C 144.964844 -178.882812 152.078125 -182.710938 152.078125 -191.464844 C 152.078125 -222.644531 59.628906 -237.960938 59.628906 -298.136719 C 59.628906 -311.265625 64.003906 -339.164062 77.132812 -339.164062 C 97.921875 -339.164062 141.136719 -327.128906 178.335938 -233.039062 C 179.976562 -289.382812 193.105469 -332.054688 223.191406 -382.929688 C 164.660156 -382.929688 161.925781 -387.851562 119.800781 -387.851562 C 73.851562 -387.851562 13.675781 -355.578125 13.675781 -298.136719 C 13.675781 -247.808594 134.570312 -209.515625 134.570312 -195.839844 Z M 134.570312 -195.839844 "/></g></g></g><g fill="#ffbd59" fill-opacity="1"><g transform="translate(713.352515, 921.266079)"><g><path d="M 5.46875 0 C 32.273438 -5.46875 52.515625 -8.207031 73.304688 -8.207031 C 94.089844 -8.207031 114.878906 -5.46875 141.136719 0 C 103.9375 -140.589844 89.714844 -231.945312 89.714844 -284.460938 C 89.714844 -321.660156 96.824219 -339.164062 107.765625 -339.164062 C 132.382812 -339.164062 186.539062 -251.636719 186.539062 -147.699219 C 186.539062 -99.5625 175.054688 -48.140625 144.417969 0 C 169.035156 -5.46875 188.183594 -8.207031 207.328125 -8.207031 C 226.476562 -8.207031 245.621094 -5.46875 269.691406 0 C 225.925781 -86.980469 196.933594 -166.300781 196.933594 -247.808594 C 196.933594 -291.574219 205.6875 -335.882812 223.738281 -382.929688 C 190.371094 -377.457031 163.566406 -374.722656 137.308594 -374.722656 C 111.050781 -374.722656 84.792969 -377.457031 51.421875 -382.929688 C 69.472656 -335.882812 77.679688 -291.574219 77.679688 -247.808594 C 77.679688 -166.300781 49.234375 -86.980469 5.46875 0 Z M 5.46875 0 "/></g></g></g><g fill="#ffbd59" fill-opacity="1"><g transform="translate(987.419163, 921.266079)"><g><path d="M 220.457031 -233.039062 C 220.457031 -276.800781 235.773438 -332.054688 265.863281 -382.929688 C 231.945312 -377.457031 205.6875 -374.722656 179.429688 -374.722656 C 153.171875 -374.722656 97.921875 -371.988281 5.46875 -382.929688 C 28.992188 -344.089844 50.875 -276.800781 50.875 -233.039062 L 55.796875 -233.039062 C 57.984375 -266.410156 67.832031 -338.617188 90.808594 -338.617188 C 123.085938 -338.617188 129.101562 -269.144531 129.101562 -247.808594 C 129.101562 -166.300781 115.972656 -86.980469 72.210938 0 C 125.273438 -10.941406 158.640625 -10.941406 211.15625 0 C 163.019531 -114.878906 119.253906 -339.164062 150.984375 -339.164062 C 175.601562 -339.164062 214.988281 -276.800781 215.535156 -233.039062 Z M 220.457031 -233.039062 "/></g></g></g><g fill="#ffbd59" fill-opacity="1"><g transform="translate(1257.656546, 921.266079)"><g><path d="M 134.570312 -195.839844 C 134.570312 -194.199219 132.382812 -193.105469 128.554688 -193.105469 C 114.878906 -193.105469 80.414062 -208.421875 50.875 -208.421875 C 26.804688 -208.421875 6.015625 -197.480469 6.015625 -160.828125 C 6.015625 -103.9375 56.34375 -25.710938 118.707031 5.46875 C 144.964844 -8.207031 228.664062 -15.863281 236.867188 -184.898438 C 214.441406 -170.675781 182.710938 -160.28125 150.984375 -154.8125 C 169.582031 -125.273438 184.898438 -94.636719 184.898438 -74.945312 C 184.898438 -61.816406 180.523438 -53.609375 167.394531 -53.609375 C 125.820312 -53.609375 35.011719 -141.136719 35.011719 -178.882812 C 35.011719 -189.824219 42.121094 -193.652344 55.25 -193.652344 C 80.960938 -193.652344 106.671875 -178.882812 131.835938 -178.882812 C 144.964844 -178.882812 152.078125 -182.710938 152.078125 -191.464844 C 152.078125 -222.644531 59.628906 -237.960938 59.628906 -298.136719 C 59.628906 -311.265625 64.003906 -339.164062 77.132812 -339.164062 C 97.921875 -339.164062 141.136719 -327.128906 178.335938 -233.039062 C 179.976562 -289.382812 193.105469 -332.054688 223.191406 -382.929688 C 164.660156 -382.929688 161.925781 -387.851562 119.800781 -387.851562 C 73.851562 -387.851562 13.675781 -355.578125 13.675781 -298.136719 C 13.675781 -247.808594 134.570312 -209.515625 134.570312 -195.839844 Z M 134.570312 -195.839844 "/></g></g></g><g fill="#ffbd59" fill-opacity="1"><g transform="translate(236.325132, 1369.19295)"><g><path d="M 148.246094 -246.714844 L 208.421875 -272.972656 C 204.046875 -312.90625 179.429688 -388.398438 115.425781 -388.398438 C 50.875 -388.398438 5.46875 -310.71875 5.46875 -192.558594 C 5.46875 -73.304688 50.875 5.46875 115.425781 5.46875 C 195.839844 5.46875 212.25 -122.535156 212.25 -204.046875 C 196.386719 -194.746094 177.789062 -190.371094 154.265625 -190.371094 C 146.058594 -190.371094 136.761719 -190.917969 126.367188 -192.558594 C 144.417969 -154.265625 181.070312 -89.167969 181.070312 -60.722656 C 181.070312 -50.875 175.054688 -43.214844 166.300781 -43.214844 C 91.902344 -43.214844 45.40625 -211.15625 45.40625 -297.589844 C 45.40625 -327.675781 50.875 -347.917969 62.910156 -347.917969 C 101.203125 -347.917969 134.023438 -282.273438 148.246094 -246.714844 Z M 148.246094 -246.714844 "/></g></g></g><g fill="#ffbd59" fill-opacity="1"><g transform="translate(453.499653, 1369.19295)"><g><path d="M 129.101562 -178.882812 C 147.152344 -178.882812 153.171875 -147.699219 153.171875 -107.765625 C 153.171875 -66.191406 147.152344 -18.597656 143.324219 0 C 161.925781 -5.46875 179.976562 -8.207031 196.933594 -8.207031 C 214.441406 -8.207031 231.398438 -5.46875 249.996094 0 C 236.320312 -59.082031 203.5 -194.746094 143.871094 -194.746094 C 127.460938 -194.746094 106.671875 -184.351562 98.46875 -184.351562 C 96.277344 -184.351562 94.636719 -184.898438 94.636719 -187.085938 C 94.636719 -192.011719 101.75 -198.027344 113.785156 -204.59375 C 152.078125 -226.476562 229.757812 -248.902344 229.757812 -298.136719 C 229.757812 -368.707031 138.949219 -388.398438 67.832031 -388.398438 C 44.308594 -388.398438 21.335938 -386.210938 6.015625 -382.929688 C 39.386719 -323.847656 59.082031 -256.015625 59.082031 -191.464844 C 59.082031 -126.914062 39.386719 -58.535156 5.46875 0 C 30.085938 -5.46875 49.234375 -8.207031 68.378906 -8.207031 C 87.527344 -8.207031 110.503906 -5.46875 135.117188 0 C 67.832031 -133.476562 46.5 -347.917969 80.960938 -347.917969 C 99.5625 -347.917969 121.988281 -329.867188 141.136719 -297.042969 C 183.804688 -224.285156 84.792969 -227.023438 84.792969 -186.539062 C 84.792969 -176.695312 93.542969 -173.410156 100.65625 -173.410156 C 109.957031 -173.410156 121.988281 -178.882812 129.101562 -178.882812 Z M 129.101562 -178.882812 "/></g></g></g><g fill="#ffbd59" fill-opacity="1"><g transform="translate(708.419977, 1369.19295)"><g><path d="M 5.46875 -192.558594 C 5.46875 -73.851562 50.875 5.46875 113.785156 5.46875 C 176.148438 5.46875 222.097656 -76.039062 222.097656 -194.746094 C 222.097656 -312.90625 176.148438 -388.398438 113.785156 -388.398438 C 49.78125 -388.398438 5.46875 -310.71875 5.46875 -192.558594 Z M 166.300781 -43.214844 C 92.449219 -43.214844 45.40625 -211.15625 45.40625 -297.589844 C 45.40625 -327.675781 50.875 -347.917969 62.910156 -347.917969 C 113.785156 -347.917969 185.992188 -194.746094 185.992188 -86.433594 C 185.992188 -60.175781 179.976562 -43.214844 166.300781 -43.214844 Z M 166.300781 -43.214844 "/></g></g></g><g fill="#ffbd59" fill-opacity="1"><g transform="translate(935.441316, 1369.19295)"><g><path d="M 164.113281 -251.089844 C 172.863281 -251.089844 185.445312 -183.804688 185.445312 -71.117188 C 185.445312 -28.445312 206.78125 6.015625 245.074219 6.015625 C 260.9375 6.015625 287.742188 0.546875 296.496094 0.546875 C 224.832031 -137.855469 258.203125 -258.203125 322.753906 -382.382812 C 296.496094 -376.910156 276.253906 -374.175781 256.015625 -374.175781 C 235.773438 -374.175781 215.535156 -376.910156 189.277344 -382.382812 C 206.78125 -349.011719 276.253906 -89.714844 213.894531 -89.714844 C 195.292969 -89.714844 198.027344 -267.503906 164.113281 -267.503906 C 129.648438 -267.503906 133.476562 -89.714844 114.878906 -89.714844 C 52.515625 -89.714844 121.441406 -349.011719 138.949219 -382.382812 C 112.691406 -376.910156 91.902344 -374.175781 71.664062 -374.175781 C 51.421875 -374.175781 31.179688 -376.910156 5.46875 -382.382812 C 70.019531 -258.203125 103.390625 -137.855469 31.179688 0.546875 C 40.480469 0.546875 67.285156 6.015625 82.601562 6.015625 C 120.894531 6.015625 142.777344 -28.445312 142.777344 -71.117188 C 142.777344 -183.804688 155.359375 -251.089844 164.113281 -251.089844 Z M 164.113281 -251.089844 "/></g></g></g></svg>