<svg xmlns="http://www.w3.org/2000/svg" xmlns:xlink="http://www.w3.org/1999/xlink" width="600" zoomAndPan="magnify" viewBox="0 0 450 74.999997" height="100" preserveAspectRatio="xMidYMid meet" version="1.0"><defs><g/></defs><g fill="#3f542a" fill-opacity="1"><g transform="translate(69.258012, 73.382796)"><g><path d="M 34.613281 -67.683594 C 30.359375 -66.714844 26.976562 -66.234375 23.59375 -66.234375 C 20.207031 -66.234375 16.824219 -66.714844 12.472656 -67.683594 C 18.371094 -57.242188 21.851562 -45.347656 21.851562 -33.9375 C 21.851562 8.410156 2.03125 4.640625 16.242188 -17.886719 C 10.539062 -18.855469 5.027344 -20.691406 1.0625 -23.207031 C 1.835938 -7.25 8.121094 0.96875 17.308594 0.96875 C 21.660156 0.96875 26.589844 -0.871094 32.101562 -4.835938 C 27.652344 -14.019531 25.140625 -24.171875 25.140625 -33.839844 C 25.140625 -45.25 28.621094 -57.242188 34.613281 -67.683594 Z M 34.613281 -67.683594 "/></g></g></g><g fill="#3f542a" fill-opacity="1"><g transform="translate(104.932814, 73.382796)"><g><path d="M 0.96875 -34.035156 C 0.96875 -13.054688 8.992188 0.96875 20.113281 0.96875 C 31.132812 0.96875 39.257812 -13.441406 39.257812 -34.421875 C 39.257812 -55.308594 31.132812 -68.648438 20.113281 -68.648438 C 8.796875 -68.648438 0.96875 -54.917969 0.96875 -34.035156 Z M 29.394531 -7.636719 C 16.339844 -7.636719 8.023438 -37.324219 8.023438 -52.597656 C 8.023438 -57.917969 8.992188 -61.496094 11.121094 -61.496094 C 20.113281 -61.496094 32.875 -34.421875 32.875 -15.277344 C 32.875 -10.636719 31.8125 -7.636719 29.394531 -7.636719 Z M 29.394531 -7.636719 "/></g></g></g><g fill="#3f542a" fill-opacity="1"><g transform="translate(145.24824, 73.382796)"><g><path d="M 23.109375 0.96875 C 29.199219 0.96875 40.707031 -1.355469 40.707031 -33.550781 C 40.707031 -45.539062 39.835938 -57.144531 45.058594 -67.683594 C 40.609375 -66.714844 37.128906 -66.234375 33.648438 -66.234375 C 30.070312 -66.234375 26.589844 -66.714844 22.140625 -67.683594 C 29.585938 -54.4375 36.160156 -34.90625 36.160156 -19.53125 C 36.160156 -17.402344 36.644531 -7.636719 32.488281 -7.636719 C 21.464844 -7.636719 8.796875 -29.972656 8.796875 -40.898438 C 8.796875 -51.921875 14.40625 -59.851562 20.304688 -67.683594 C 16.535156 -66.714844 13.632812 -66.234375 10.734375 -66.234375 C 7.734375 -66.234375 4.835938 -66.714844 1.0625 -67.683594 C 6.382812 -57.144531 5.414062 -45.539062 5.414062 -33.550781 C 5.414062 -1.355469 17.015625 0.96875 23.109375 0.96875 Z M 23.109375 0.96875 "/></g></g></g><g fill="#3f542a" fill-opacity="1"><g transform="translate(191.364447, 73.382796)"><g><path d="M 22.820312 -31.617188 C 26.007812 -31.617188 27.074219 -26.105469 27.074219 -19.046875 C 27.074219 -11.699219 26.007812 -3.289062 25.332031 0 C 28.621094 -0.96875 31.8125 -1.449219 34.808594 -1.449219 C 37.902344 -1.449219 40.898438 -0.96875 44.1875 0 C 41.769531 -10.441406 35.96875 -34.421875 25.429688 -34.421875 C 22.527344 -34.421875 18.855469 -32.585938 17.402344 -32.585938 C 17.015625 -32.585938 16.726562 -32.679688 16.726562 -33.066406 C 16.726562 -33.9375 17.984375 -35 20.113281 -36.160156 C 26.878906 -40.03125 40.609375 -43.992188 40.609375 -52.695312 C 40.609375 -65.167969 24.558594 -68.648438 11.988281 -68.648438 C 7.832031 -68.648438 3.769531 -68.261719 1.0625 -67.683594 C 6.960938 -57.242188 10.441406 -45.25 10.441406 -33.839844 C 10.441406 -22.433594 6.960938 -10.347656 0.96875 0 C 5.316406 -0.96875 8.703125 -1.449219 12.085938 -1.449219 C 15.46875 -1.449219 19.53125 -0.96875 23.882812 0 C 11.988281 -23.59375 8.21875 -61.496094 14.308594 -61.496094 C 17.597656 -61.496094 21.5625 -58.304688 24.945312 -52.503906 C 32.488281 -39.644531 14.988281 -40.125 14.988281 -32.972656 C 14.988281 -31.230469 16.535156 -30.652344 17.789062 -30.652344 C 19.433594 -30.652344 21.5625 -31.617188 22.820312 -31.617188 Z M 22.820312 -31.617188 "/></g></g></g><g fill="#3f542a" fill-opacity="1"><g transform="translate(236.610537, 73.382796)"><g><path d="M 49.023438 0 C 43.027344 -10.441406 39.546875 -22.433594 39.546875 -33.839844 C 39.546875 -45.25 43.027344 -57.242188 49.023438 -67.683594 C 44.574219 -66.714844 40.996094 -66.234375 37.417969 -66.234375 C 33.9375 -66.234375 30.457031 -66.714844 25.914062 -67.683594 C 34.132812 -51.921875 36.453125 -38.964844 36.453125 -30.652344 C 36.453125 -23.980469 35 -20.207031 33.839844 -20.207031 C 19.53125 -20.207031 31.425781 -68.648438 10.636719 -68.648438 C 7.734375 -68.648438 2.609375 -67.683594 0.96875 -67.683594 C 6.960938 -57.242188 10.441406 -45.25 10.441406 -33.839844 C 10.441406 -22.433594 6.960938 -10.441406 0.96875 0 C 5.511719 -0.96875 8.992188 -1.449219 12.472656 -1.449219 C 16.050781 -1.449219 19.628906 -0.96875 24.074219 0 C 15.855469 -15.855469 13.535156 -28.8125 13.535156 -37.128906 C 13.535156 -43.703125 14.988281 -47.476562 16.050781 -47.476562 C 30.265625 -47.476562 18.566406 0.96875 39.257812 0.96875 C 42.253906 0.96875 47.378906 0 49.023438 0 Z M 49.023438 0 "/></g></g></g><g fill="#3f542a" fill-opacity="1"><g transform="translate(286.593931, 73.382796)"><g><path d="M 0.96875 0 C 5.703125 -0.96875 9.28125 -1.449219 12.957031 -1.449219 C 16.628906 -1.449219 20.304688 -0.96875 24.945312 0 C 18.371094 -24.847656 15.855469 -40.996094 15.855469 -50.277344 C 15.855469 -56.855469 17.113281 -59.949219 19.046875 -59.949219 C 23.398438 -59.949219 32.972656 -44.476562 32.972656 -26.105469 C 32.972656 -17.597656 30.941406 -8.507812 25.527344 0 C 29.878906 -0.96875 33.261719 -1.449219 36.644531 -1.449219 C 40.03125 -1.449219 43.414062 -0.96875 47.667969 0 C 39.933594 -15.375 34.808594 -29.394531 34.808594 -43.800781 C 34.808594 -51.535156 36.355469 -59.367188 39.546875 -67.683594 C 33.648438 -66.714844 28.910156 -66.234375 24.269531 -66.234375 C 19.628906 -66.234375 14.988281 -66.714844 9.089844 -67.683594 C 12.28125 -59.367188 13.730469 -51.535156 13.730469 -43.800781 C 13.730469 -29.394531 8.703125 -15.375 0.96875 0 Z M 0.96875 0 "/></g></g></g><g fill="#3f542a" fill-opacity="1"><g transform="translate(335.223811, 73.382796)"><g><path d="M 0.96875 0 C 17.308594 -1.933594 23.496094 -1.933594 39.835938 0 C 39.835938 -0.0976562 39.738281 -0.0976562 39.738281 -0.195312 C 32.679688 -12.859375 30.746094 -23.300781 30.746094 -28.425781 L 29.78125 -28.425781 C 29.78125 -23.011719 26.394531 -9.28125 22.820312 -9.28125 C 11.796875 -9.28125 8.507812 -45.734375 22.046875 -67.683594 C 13.34375 -65.75 9.667969 -65.75 0.96875 -67.683594 C 12.957031 -45.734375 12.957031 -21.949219 0.96875 0 Z M 0.96875 0 "/></g></g></g></svg>