<svg xmlns="http://www.w3.org/2000/svg" xmlns:xlink="http://www.w3.org/1999/xlink" width="600" zoomAndPan="magnify" viewBox="0 0 450 74.999997" height="100" preserveAspectRatio="xMidYMid meet" version="1.0"><defs><g/></defs><g fill="#3f542a" fill-opacity="1"><g transform="translate(88.016802, 73.382796)"><g><path d="M 22.820312 -31.617188 C 26.007812 -31.617188 27.074219 -26.105469 27.074219 -19.046875 C 27.074219 -11.699219 26.007812 -3.289062 25.332031 0 C 28.621094 -0.96875 31.8125 -1.449219 34.808594 -1.449219 C 37.902344 -1.449219 40.898438 -0.96875 44.1875 0 C 41.769531 -10.441406 35.96875 -34.421875 25.429688 -34.421875 C 22.527344 -34.421875 18.855469 -32.585938 17.402344 -32.585938 C 17.015625 -32.585938 16.726562 -32.679688 16.726562 -33.066406 C 16.726562 -33.9375 17.984375 -35 20.113281 -36.160156 C 26.878906 -40.03125 40.609375 -43.992188 40.609375 -52.695312 C 40.609375 -65.167969 24.558594 -68.648438 11.988281 -68.648438 C 7.832031 -68.648438 3.769531 -68.261719 1.0625 -67.683594 C 6.960938 -57.242188 10.441406 -45.25 10.441406 -33.839844 C 10.441406 -22.433594 6.960938 -10.347656 0.96875 0 C 5.316406 -0.96875 8.703125 -1.449219 12.085938 -1.449219 C 15.46875 -1.449219 19.53125 -0.96875 23.882812 0 C 11.988281 -23.59375 8.21875 -61.496094 14.308594 -61.496094 C 17.597656 -61.496094 21.5625 -58.304688 24.945312 -52.503906 C 32.488281 -39.644531 14.988281 -40.125 14.988281 -32.972656 C 14.988281 -31.230469 16.535156 -30.652344 17.789062 -30.652344 C 19.433594 -30.652344 21.5625 -31.617188 22.820312 -31.617188 Z M 22.820312 -31.617188 "/></g></g></g><g fill="#3f542a" fill-opacity="1"><g transform="translate(133.262892, 73.382796)"><g><path d="M 23.785156 -34.613281 C 23.785156 -34.324219 23.398438 -34.132812 22.722656 -34.132812 C 20.304688 -34.132812 14.214844 -36.839844 8.992188 -36.839844 C 4.738281 -36.839844 1.0625 -34.90625 1.0625 -28.425781 C 1.0625 -18.371094 9.960938 -4.542969 20.980469 0.96875 C 25.621094 -1.449219 40.417969 -2.804688 41.867188 -32.679688 C 37.902344 -30.167969 32.292969 -28.332031 26.6875 -27.363281 C 29.972656 -22.140625 32.679688 -16.726562 32.679688 -13.246094 C 32.679688 -10.925781 31.90625 -9.476562 29.585938 -9.476562 C 22.238281 -9.476562 6.1875 -24.945312 6.1875 -31.617188 C 6.1875 -33.550781 7.445312 -34.226562 9.765625 -34.226562 C 14.308594 -34.226562 18.855469 -31.617188 23.300781 -31.617188 C 25.621094 -31.617188 26.878906 -32.292969 26.878906 -33.839844 C 26.878906 -39.351562 10.539062 -42.058594 10.539062 -52.695312 C 10.539062 -55.015625 11.3125 -59.949219 13.632812 -59.949219 C 17.308594 -59.949219 24.945312 -57.820312 31.519531 -41.191406 C 31.8125 -51.148438 34.132812 -58.691406 39.449219 -67.683594 C 29.105469 -67.683594 28.621094 -68.554688 21.175781 -68.554688 C 13.054688 -68.554688 2.417969 -62.847656 2.417969 -52.695312 C 2.417969 -43.800781 23.785156 -37.03125 23.785156 -34.613281 Z M 23.785156 -34.613281 "/></g></g></g><g fill="#3f542a" fill-opacity="1"><g transform="translate(176.18867, 73.382796)"><g><path d="M 9.960938 -28.425781 C 9.476562 -23.59375 7.832031 -13.632812 0.96875 0 C 6.574219 0.675781 15.664062 0.96875 20.980469 0.96875 C 32.972656 0.96875 39.644531 -8.316406 39.644531 -17.308594 C 39.644531 -28.234375 29.007812 -34.132812 20.402344 -39.835938 C 16.050781 -42.738281 9.574219 -47.089844 9.476562 -53.082031 C 9.476562 -55.210938 10.347656 -59.949219 12.859375 -59.949219 C 16.824219 -59.949219 22.433594 -56.46875 34.132812 -41.191406 C 34.324219 -49.023438 37.226562 -59.851562 40.320312 -67.683594 C 30.941406 -67.683594 30.941406 -68.554688 20.980469 -68.554688 C 12.28125 -68.554688 0.96875 -62.847656 0.96875 -52.695312 C 0.96875 -45.058594 18.757812 -40.609375 27.265625 -31.425781 C 30.746094 -27.652344 32.777344 -22.335938 32.777344 -17.113281 C 32.777344 -12.761719 31.230469 -9.476562 28.910156 -9.476562 C 22.140625 -9.476562 10.828125 -17.402344 9.960938 -28.425781 Z M 9.960938 -28.425781 "/></g></g></g><g fill="#3f542a" fill-opacity="1"><g transform="translate(217.470893, 73.382796)"><g><path d="M 23.109375 0.96875 C 29.199219 0.96875 40.707031 -1.355469 40.707031 -33.550781 C 40.707031 -45.539062 39.835938 -57.144531 45.058594 -67.683594 C 40.609375 -66.714844 37.128906 -66.234375 33.648438 -66.234375 C 30.070312 -66.234375 26.589844 -66.714844 22.140625 -67.683594 C 29.585938 -54.4375 36.160156 -34.90625 36.160156 -19.53125 C 36.160156 -17.402344 36.644531 -7.636719 32.488281 -7.636719 C 21.464844 -7.636719 8.796875 -29.972656 8.796875 -40.898438 C 8.796875 -51.921875 14.40625 -59.851562 20.304688 -67.683594 C 16.535156 -66.714844 13.632812 -66.234375 10.734375 -66.234375 C 7.734375 -66.234375 4.835938 -66.714844 1.0625 -67.683594 C 6.382812 -57.144531 5.414062 -45.539062 5.414062 -33.550781 C 5.414062 -1.355469 17.015625 0.96875 23.109375 0.96875 Z M 23.109375 0.96875 "/></g></g></g><g fill="#3f542a" fill-opacity="1"><g transform="translate(263.5871, 73.382796)"><g><path d="M 0.96875 0 C 5.511719 -0.96875 9.1875 -1.449219 12.761719 -1.449219 C 16.339844 -1.449219 19.917969 -0.96875 24.558594 0 C 16.242188 -15.46875 13.441406 -31.230469 13.441406 -40.222656 C 13.441406 -44.863281 14.117188 -47.765625 15.375 -47.765625 C 18.660156 -47.765625 20.207031 -24.367188 25.332031 -24.367188 C 30.457031 -24.367188 32.003906 -47.765625 35.292969 -47.765625 C 36.546875 -47.765625 37.226562 -44.960938 37.226562 -40.320312 C 37.226562 -31.328125 34.421875 -15.566406 26.203125 0 C 30.746094 -0.96875 34.421875 -1.449219 38 -1.449219 C 41.578125 -1.449219 45.152344 -0.96875 49.699219 0 C 43.703125 -10.441406 40.222656 -22.433594 40.222656 -33.839844 C 40.222656 -45.25 43.703125 -57.242188 49.699219 -67.683594 C 48.152344 -67.683594 43.414062 -68.648438 40.609375 -68.648438 C 33.839844 -68.648438 30.941406 -62.558594 30.941406 -55.015625 C 30.941406 -44.089844 27.847656 -27.265625 25.332031 -27.265625 C 22.820312 -27.265625 19.726562 -44.089844 19.726562 -55.015625 C 19.726562 -62.558594 16.824219 -68.648438 10.054688 -68.648438 C 7.25 -68.648438 2.515625 -67.683594 0.96875 -67.683594 C 6.960938 -57.242188 10.441406 -45.25 10.441406 -33.839844 C 10.441406 -22.433594 6.960938 -10.441406 0.96875 0 Z M 0.96875 0 "/></g></g></g><g fill="#3f542a" fill-opacity="1"><g transform="translate(314.343932, 73.382796)"><g><path d="M 23.785156 -34.613281 C 23.785156 -34.324219 23.398438 -34.132812 22.722656 -34.132812 C 20.304688 -34.132812 14.214844 -36.839844 8.992188 -36.839844 C 4.738281 -36.839844 1.0625 -34.90625 1.0625 -28.425781 C 1.0625 -18.371094 9.960938 -4.542969 20.980469 0.96875 C 25.621094 -1.449219 40.417969 -2.804688 41.867188 -32.679688 C 37.902344 -30.167969 32.292969 -28.332031 26.6875 -27.363281 C 29.972656 -22.140625 32.679688 -16.726562 32.679688 -13.246094 C 32.679688 -10.925781 31.90625 -9.476562 29.585938 -9.476562 C 22.238281 -9.476562 6.1875 -24.945312 6.1875 -31.617188 C 6.1875 -33.550781 7.445312 -34.226562 9.765625 -34.226562 C 14.308594 -34.226562 18.855469 -31.617188 23.300781 -31.617188 C 25.621094 -31.617188 26.878906 -32.292969 26.878906 -33.839844 C 26.878906 -39.351562 10.539062 -42.058594 10.539062 -52.695312 C 10.539062 -55.015625 11.3125 -59.949219 13.632812 -59.949219 C 17.308594 -59.949219 24.945312 -57.820312 31.519531 -41.191406 C 31.8125 -51.148438 34.132812 -58.691406 39.449219 -67.683594 C 29.105469 -67.683594 28.621094 -68.554688 21.175781 -68.554688 C 13.054688 -68.554688 2.417969 -62.847656 2.417969 -52.695312 C 2.417969 -43.800781 23.785156 -37.03125 23.785156 -34.613281 Z M 23.785156 -34.613281 "/></g></g></g></svg>